<svg xmlns="http://www.w3.org/2000/svg" width="290.626" height="290.626" viewBox="0 0 290.626 290.626">
  <g id="mumbai" fill="currentColor">
    <path d="M290.626,174.858v-10.795h-9.375v-18.75h9.374v-9.375h-9.375v-18.75h-65.625V89.063H225v-9.375h-14.063V37.5h4.688 v-9.375h-5.123c-0.773-4.823-2.944-12.202-8.939-16.631V0h-9.375v11.494c-5.995,4.43-8.166,11.808-8.939,16.631h-5.123V37.5 h4.688v18.75h-75V37.5h4.688v-9.375h-5.123c-0.773-4.823-2.944-12.202-8.939-16.631V0h-9.375v11.494 c-5.995,4.43-8.166,11.808-8.939,16.631H75V37.5h4.688v42.188H65.625v9.375H75v28.125H9.375v18.75H0v9.375h9.375v18.75H0v10.795 l9.375,14.063v92.33H0v9.375h42.188h28.125h150h28.125h42.188v-9.375h-9.375v-92.33L290.626,174.858z M18.75,145.313h9.375v18.75 H18.75V145.313z M28.125,281.251H18.75v-89.063h9.375V281.251z M60.938,281.25h-9.375v-51.563h9.375V281.25z M46.936,220.313 c0.234-4.688,1.58-9.614,9.314-12.966c7.734,3.352,9.075,8.278,9.314,12.966H46.936z M75,220.313v60.938h-4.688v-60.938h0.001H75 c0-6.033-3.609-18.647-17.269-23.194l-1.481-0.497l-1.481,0.492C41.109,201.666,37.5,214.28,37.5,220.313l4.688,0.019v60.919 H37.5v-60.938v-28.125H75V220.313z M75,182.813H16.57l-6.248-9.375H75V182.813z M75,164.063H37.5v-18.75H75V164.063z M75,135.938 H18.75v-9.375H75V135.938z M93.745,19.744c2.325,2.227,3.487,5.606,4.083,8.381h-8.175 C90.234,25.355,91.397,21.975,93.745,19.744z M89.063,37.5h9.375v42.188h-9.375V37.5z M103.125,281.251h-18.75v-32.813h18.75 V281.251z M103.125,239.063h-18.75v-65.625h18.75V239.063z M103.125,164.063h-18.75v-18.75h18.75V164.063z M103.125,135.938 h-18.75v-9.375h18.75V135.938z M103.125,117.188h-18.75V89.063h18.75V117.188z M159.376,281.25h-0.001H131.25V225 c0-16.373,10.509-21.82,14.063-23.189c3.53,1.369,14.063,6.83,14.063,23.189V281.25z M178.125,281.25h-9.375V225 c0-21.431-14.587-30.745-22.303-32.672l-1.134-0.286l-1.134,0.291c-7.716,1.922-22.303,11.236-22.303,32.667v56.25H112.5V173.438 h65.625V281.25z M112.5,164.063v-18.75h9.375v18.75H112.5z M131.25,164.063v-18.75h9.375v18.75H131.25z M150,164.063v-18.75 h9.375v18.75H150z M178.125,164.063h-9.375v-18.75h9.375V164.063z M178.125,135.938H112.5v-9.375h65.625V135.938z  M178.125,117.188H112.5V89.063h65.625V117.188z M182.813,79.688h-75V65.625h75V79.688z M196.87,19.744 c2.325,2.227,3.488,5.606,4.083,8.381h-8.175C193.359,25.355,194.522,21.975,196.87,19.744z M192.188,37.5h9.375v42.188h-9.375 V37.5z M206.25,281.251H187.5v-32.813h18.75V281.251z M206.25,239.063H187.5v-65.625h18.75V239.063z M206.25,164.063H187.5 v-18.75h18.75V164.063z M206.25,135.938H187.5v-9.375h18.75V135.938z M206.25,117.188H187.5V89.063h18.75V117.188z M215.625,126.563h56.25v9.375h-56.25V126.563z M271.875,145.313v18.75H262.5v-18.75H271.875z M215.625,145.313h37.5v18.75h-37.5 V145.313z M239.063,281.25h-9.375v-51.563h9.375V281.25z M225.061,220.313c0.234-4.688,1.58-9.614,9.314-12.966 c7.753,3.361,9.084,8.278,9.314,12.966H225.061z M253.126,220.312L253.126,220.312v60.938h-4.688v-60.937L253.126,220.312 c0-6.032-3.609-18.646-17.269-23.193l-1.481-0.497l-1.481,0.492c-13.659,4.552-17.269,17.166-17.269,23.198l4.688,0.019v60.919 h-4.688v-60.938v-28.125h37.5V220.312z M271.875,281.25H262.5v-89.063h9.375V281.25z M274.055,182.813h-58.43v-9.375h64.678 L274.055,182.813z"/>
    <rect x="121.875" y="182.813" width="9.375" height="9.375"/>
    <rect x="159.375" y="182.813" width="9.375" height="9.375"/>
  </g>
</svg>
