<svg xmlns="http://www.w3.org/2000/svg" width="512" height="512" viewBox="0 0 512 512">
  <g id="mumbai" fill="currentColor">
    <path d="M336 160v-48H176v48zm-72-32h56v16h-56zm-16 0v16h-56v-16zM176 176v336h16V350.877c0-21.912 10.645-42.597 28.476-55.333l30.875-22.053a8 8 0 0 1 9.3 0l30.875 22.053C309.355 308.28 320 328.965 320 350.877V440h-16v-89.123c0-16.756-8.14-32.574-21.775-42.314L256 289.831l-26.225 18.732C216.14 318.303 208 334.121 208 350.877V512h96v-56h16v56h16V176zm40 104h-24v-16h24zm0-40h-16v-48h16zm32 0h-16v-48h16zm32 0h-16v-48h16zm16-48h16v48h-16zm24 88h-24v-16h24zM176 72h160v24H176zM48 363.313l-6.627 6.627C35.329 375.985 32 384.021 32 392.568V472h32v-79.432c0-8.547-3.329-16.583-9.373-22.627zM151.213 47.213L144 40V0h-16v40l-7.213 7.213A30 30 0 0 0 112 68.426V120h48V68.426a30 30 0 0 0-8.787-21.213zM112 416h48v16h-48zM112 448h48v16h-48zM112 480h48v32h-48zM112 184h48v216h-48zM112 136h48v32h-48zM0 488h96v24H0z"/>
    <path d="M96 472V328H0v144h16v-79.432c0-12.821 4.993-24.875 14.059-33.941l12.284-12.284a8 8 0 0 1 11.313 0l12.284 12.284c9.067 9.066 14.06 21.12 14.06 33.941V472zM0 296h96v16H0zM96 232H0v48h96zm-64 32H16v-16h16zm32 0v-16h16v16zM0 200h96v16H0zM96 136H0v48h96zm-80 32v-16h64v16zM96 96H24l-8 8v16h80zM464 363.313l6.627 6.627c6.044 6.044 9.373 14.08 9.373 22.627V472h-32v-79.432c0-8.547 3.329-16.583 9.373-22.627zM360.787 47.213L368 40V0h16v40l7.213 7.213A30 30 0 0 1 400 68.426V120h-48V68.426a30 30 0 0 1 8.787-21.213zM352 416h48v16h-48zM352 448h48v16h-48zM352 480h48v32h-48zM352 184h48v216h-48zM352 136h48v32h-48zM416 488h96v24h-96z"/>
    <path d="M416 472V328h96v144h-16v-79.432c0-12.821-4.993-24.875-14.059-33.941l-12.284-12.284a8 8 0 0 0-11.313 0l-12.284 12.284c-9.066 9.066-14.059 21.12-14.059 33.941V472zM416 296h96v16h-96zM416 280h96v-48h-96zm64-32h16v16h-16zm-48 16v-16h16v16zM416 200h96v16h-96zM416 184h96v-48h-96zm16-16v-16h64v16zM416 96h72l8 8v16h-80z"/>
  </g>
</svg>
