<svg xmlns="http://www.w3.org/2000/svg" width="512" height="64" viewBox="0 0 135.467 16.933">
  <g id="phone" fill="currentColor">
    <path d="M24.347 9.584c.66-1.676 1.22-3.183 1.22-3.268 0-.203-.051-.355-.238-.355-.44 0-1.388 1.76-2.252 3.572h-1.371c-2.32 0-1.71.915-1.254.915.712 0 1.457.034 2.185.068-.66 1.49-1.169 2.827-1.169 2.997 0 .44.153.762.644.762.237 0 1.05-1.795 1.812-3.692 1.05.085 1.913.136 2.269.136.203 0 .863-.119.863-.61 0-.322-1.236-.474-2.709-.525zM34.484 2.574c-2.286 0-3.843 2.117-3.843 3.302 0 1.456.694 2.167 2.032 2.167.728 0 1.117-.288 1.117-.49 0-.187-.796-.509-.796-1.61 0-1.1.576-2.218 1.169-2.218.508 0 1.016.898 1.016 1.812 0 5.08-6.164 8.28-6.164 8.5 0 .22.237.356.948.356 2.27 0 7.417-5.317 7.417-8.856 0-.914-.068-2.963-2.896-2.963zM41.986 2.54h-.033c-.119 0-.238.05-.373.119-1.1.558-3.454 2.726-3.454 3.42 0 .305.728 0 1.456-.406-1.44 3.115-2.726 7.518-2.726 7.958 0 .356.203.745.965.745s1.32-.457 1.32-1.05c0-4.047 3.59-9.736 3.59-10.193 0-.322.034-.593-.745-.593zM57.297 4.47c0-.745-.22-1.93-1.761-1.93-1.118 0-1.558.288-1.558.677 0 .407 1.135.22 1.135 1.406 0 .982-.813 1.456-1.863 1.896a4.042 4.042 0 0 1-.17-1.236c0-.931.56-1.033.56-1.44 0-.44-2.05-.22-2.05 1.728 0 .491.136.982.356 1.473-1.642.678-3.319 1.677-3.319 4.386 0 1.304.66 2.913 3.082 2.913 2.184 0 3.404-1.745 3.404-3.421 0-1.202-.644-2.032-1.203-2.963 1.643-.78 3.387-1.423 3.387-3.489zm-3.607 6.858c0 .83-.592 1.71-.897 1.71-.542 0-1.727-.457-1.727-1.693 0-1.405.71-2.201 1.676-2.777.491.88.948 1.778.948 2.76zM61.698 2.54h-.034c-.119 0-.237.05-.373.119-1.1.558-3.454 2.726-3.454 3.42 0 .305.728 0 1.456-.406-1.439 3.115-2.726 7.518-2.726 7.958 0 .356.203.745.965.745s1.321-.457 1.321-1.05c0-4.047 3.59-9.736 3.59-10.193 0-.322.034-.593-.745-.593zM67.78 5.639c.694-.965 1.168-1.829 1.168-2.49 0-.507-1.287-.575-3.573-.575-2.32 0-1.693.914-1.253.914 1.389 0 2.286.102 2.947.187-.491.474-1.067 1.1-1.694 1.828h-.49c-2.32 0-1.694.915-1.254.915.356 0 .677 0 .965.017-2.269 2.743-4.724 6.18-4.724 6.942 0 .949.745.965 1.355.965 1.354 0 1.32-.372 1.32-.66 0-1.93 2.574-4.674 4.454-7.027.22.017.423.034.61.034.186 0 .863-.102.863-.61 0-.22-.254-.356-.694-.44zM72.976 2.54h-.034c-.119 0-.237.05-.373.119-1.1.558-3.454 2.726-3.454 3.42 0 .305.728 0 1.456-.406-1.44 3.115-2.726 7.518-2.726 7.958 0 .356.203.745.965.745s1.32-.457 1.32-1.05c0-4.047 3.59-9.736 3.59-10.193 0-.322.035-.593-.744-.593zM80.011 2.93c0-.22-.237-.356-.948-.356-2.27 0-7.417 5.317-7.417 8.856 0 .914.05 2.963 2.896 2.963 2.065 0 4.995-2.506 4.995-5.52 0-1.507-.525-2.015-1.355-2.015-.846 0-1.592.474-1.592.728 0 .17.627-.017.627 1.016 0 1.964-1.863 4.64-2.354 4.64-.525 0-1.016-.898-1.016-1.812 0-5.08 6.164-8.28 6.164-8.5zM84.419 2.54h-.034c-.118 0-.237.05-.372.119-1.101.558-3.455 2.726-3.455 3.42 0 .305.728 0 1.456-.406-1.439 3.115-2.726 7.518-2.726 7.958 0 .356.203.745.965.745s1.321-.457 1.321-1.05c0-4.047 3.59-9.736 3.59-10.193 0-.322.034-.593-.745-.593zM90.11 2.557c-2.285 0-3.572.085-3.572.576 0 .423-1.44 1.795-1.44 2.726 0 .39.492.796 1.067.796H86.284c.66-.051 1.626-.373 1.626 2.438 0 2.997-1.22 4.149-1.745 4.149-.237 0-.372-.576-.372-1.236s.525-1.016.525-1.66c0-.626-.373-.931-1.033-.931-.66 0-1.964.593-1.964 2.743 0 .88.338 2.185 2.794 2.185 2.438 0 4.098-1.83 4.098-5.165 0-2.32-.407-3.438-2.744-3.675.204-.49.508-1.219.576-1.795.694-.067 1.66-.237 3.319-.237.44 0 1.067-.914-1.253-.914zM99.16 2.93c0-.22-.237-.356-.948-.356-2.27 0-7.417 5.317-7.417 8.856 0 .914.05 2.963 2.896 2.963 2.066 0 4.995-2.506 4.995-5.52 0-1.507-.525-2.015-1.355-2.015-.846 0-1.591.474-1.591.728 0 .17.626-.017.626 1.016 0 1.964-1.862 4.64-2.354 4.64-.524 0-1.016-.898-1.016-1.812 0-5.08 6.164-8.28 6.164-8.5zM105.913 5.639c.694-.965 1.168-1.829 1.168-2.49 0-.507-1.287-.575-3.573-.575-2.32 0-1.693.914-1.253.914 1.389 0 2.286.102 2.947.187-.491.474-1.067 1.1-1.694 1.828h-.49c-2.32 0-1.694.915-1.254.915.356 0 .678 0 .965.017-2.269 2.743-4.724 6.18-4.724 6.942 0 .949.745.965 1.355.965 1.354 0 1.32-.372 1.32-.66 0-1.93 2.574-4.674 4.454-7.027.22.017.423.034.61.034.186 0 .863-.102.863-.61 0-.22-.254-.356-.694-.44zM112.768 2.574c-4.098 0-6.892 5.317-6.892 8.856 0 .914.051 2.963 2.896 2.963 2.675 0 6.672-2.59 6.672-8.974 0-1.507-1.118-2.845-2.676-2.845zm-3.674 10.668c-.525 0-1.016-.898-1.016-1.812 0-4.386 3.014-7.722 4.42-7.722.71 0 1.185.576 1.185 1.728 0 2.455-1.643 7.806-4.59 7.806z"/>
  </g>
</svg>
