<svg xmlns="http://www.w3.org/2000/svg" width="290.626" height="290.626" viewBox="0 0 290.626 290.626">>
  <g id="roorkee" fill="currentColor" stroke="currentColor">
    <path d="M120.281 48.787h50.063v9.375h-50.063zM150 15.887v20h-9.375v-20z"/>
    <path d="M160.016 51.816a14.703 14.703 0 00-7.352-12.732 14.703 14.703 0 00-14.702 0 14.703 14.703 0 00-7.351 12.732" fill="none" stroke-width="9.375"/>
    <path d="M125.923 50.093h9.375v30h-9.375zM155.329 50.093h9.375v30h-9.375z"/>

    <path d="M220.313 154.471a75 75 0 00-37.5-64.951 75 75 0 00-75 0 75 75 0 00-37.5 64.951" fill="none" stroke-width="9.375"/>

    <path d="M0 169.235h290.626v9.375H0zM12.316 150.874H278.31v9.375H12.316z"/>
    <path d="M12.316 150.874h9.375V173.5h-9.375zM268.935 150.874h9.375V173.5h-9.375zM282.506 173.923l8.12 4.687-13.532 23.437-8.12-4.687zM0 178.61l8.12-4.687 13.53 23.437-8.118 4.688z"/>
    <path d="M12.316 196.365H278.31v9.375H12.316z"/>

    <path d="M12.316 201.74h9.375v86.886h-9.375zM27.066 201.74h9.375v86.886h-9.375z"/>
    <path d="M60.69 201.74h9.375v86.886H60.69zM75.44 201.74h9.375v86.886H75.44z"/>
    <path d="M109.063 201.74h9.375v86.886h-9.375zM123.813 201.74h9.375v86.886h-9.375z"/>
    <path d="M157.437 201.74h9.375v86.886h-9.375zM172.187 201.74h9.375v86.886h-9.375z"/>
    <path d="M205.811 201.74h9.375v86.886h-9.375zM220.561 201.74h9.375v86.886h-9.375z"/>
    <path d="M254.185 201.74h9.375v86.886h-9.375zM268.935 201.74h9.375v86.886h-9.375z"/>

    <path d="M0 281.251h290.626v9.375H0z"/>

    <!-- All dots -->
    <path d="M16.585 258.848H31.92v9.375H16.585zM67.312 258.848h11.401v9.375H67.312zM113.544 258.848h14.315v9.375h-14.315zM159.559 258.848h18.554v9.375h-18.554zM211.166 258.848h14.58v9.375h-14.58zM258.799 258.848h15.64v9.375h-15.64zM140.625 62.853H150v9.375h-9.375zM43.878 222.749h9.375v9.375h-9.375zM92.252 222.749h9.375v9.375h-9.375zM188.999 222.749h9.375v9.375h-9.375zM237.373 222.749h9.375v9.375h-9.375z"/>
  </g>
</svg>
