<svg xmlns="http://www.w3.org/2000/svg" width="512" height="512" viewBox="0 0 512 512">
  <g
    id="calendar"
    fill="currentColor"
    stroke="currentColor"
    stroke-linecap="round"
    stroke-linejoin="round"
    stroke-width="var(--stroke-width, 32px)">
    <rect
      fill="none"
      x="48"
      y="80"
      width="416"
      height="384"
      rx="48"
      ry="48"/>
    <path
      stroke="none"
      d="M397.82,80H114.18C77.69,80,48,110.15,48,147.2V208H64c0-16,16-32,32-32H416c16,0,32,16,32,32h16V147.2C464,110.15,434.31,80,397.82,80Z"/>
    <circle
      stroke="none"
      cx="296"
      cy="232"
      r="24"/>
    <circle
      stroke="none"
      cx="376"
      cy="232"
      r="24"/>
    <circle
      stroke="none"
      cx="296"
      cy="312"
      r="24"/>
    <circle
      stroke="none"
      cx="376"
      cy="312"
      r="24"/>
    <circle
      stroke="none"
      cx="136"
      cy="312"
      r="24"/>
    <circle
      stroke="none"
      cx="216"
      cy="312"
      r="24"/>
    <circle
      stroke="none"
      cx="136"
      cy="392"
      r="24"/>
    <circle
      stroke="none"
      cx="216"
      cy="392"
      r="24"/>
    <circle
      stroke="none"
      cx="296"
      cy="392"
      r="24"/>
    <line
      x1="128"
      y1="48"
      x2="128"
      y2="80"
      stroke="currentColor"
      stroke-linecap="round"
      stroke-linejoin="round"/>
    <line
      x1="384"
      y1="48"
      x2="384"
      y2="80"
      stroke="currentColor"
      stroke-linecap="round"
      stroke-linejoin="round"/>
  </g>
</svg>
