<svg xmlns="http://www.w3.org/2000/svg" width="512" height="512" viewBox="0 0 512 512">
  <g
    id="film"
    fill="currentColor"
    stroke="currentColor"
    stroke-linecap="round"
    stroke-linejoin="round"
    stroke-width="var(--stroke-width, 32px)">
    <rect
      fill="none"
      x="48"
      y="96"
      width="416"
      height="320"
      rx="28"
      ry="28"/>
    <rect
      fill="none"
      x="384"
      y="336"
      width="80"
      height="80"
      rx="28"
      ry="28"/>
    <rect
      fill="none"
      x="384"
      y="256"
      width="80"
      height="80"
      rx="28"
      ry="28"/>
    <rect
      fill="none"
      x="384"
      y="176"
      width="80"
      height="80"
      rx="28"
      ry="28"/>
    <rect
      fill="none"
      x="384"
      y="96"
      width="80"
      height="80"
      rx="28"
      ry="28"/>
    <rect
      fill="none"
      x="48"
      y="336"
      width="80"
      height="80"
      rx="28"
      ry="28"/>
    <rect
      fill="none"
      x="48"
      y="256"
      width="80"
      height="80"
      rx="28"
      ry="28"/>
    <rect
      fill="none"
      x="48"
      y="176"
      width="80"
      height="80"
      rx="28"
      ry="28"/>
    <rect
      fill="none"
      x="48"
      y="96"
      width="80"
      height="80"
      rx="28"
      ry="28"/>
    <rect
      fill="none"
      x="128"
      y="96"
      width="256"
      height="160"
      rx="28"
      ry="28"/>
    <rect
      fill="none"
      x="128"
      y="256"
      width="256"
      height="160"
      rx="28"
      ry="28"/>
  </g>
</svg>
