<svg xmlns="http://www.w3.org/2000/svg" width="512" height="512" viewBox="0 0 512 512">
  <g
    id="quotes"
    fill="currentColor"
    stroke="currentColor"
    stroke-linecap="round"
    stroke-linejoin="round"
    stroke-width="var(--stroke-width, 32px)">
    <path
      fill="none"
      d="m 423.4696451,256 h -64.411402 v -51.5291216 c 0,-28.4215311 23.1075905,-51.5291215 51.5291216,-51.5291215 h 6.4411402 c 10.7083956,0 19.3234206,-8.615025 19.3234206,-19.3234206 V 94.97149511 c 0,-10.70839558 -8.615025,-19.32342059 -19.3234206,-19.32342059 h -6.4411402 c -71.1745992,0 -128.8228039,57.64820478 -128.8228039,128.82280388 v 193.2342059 c 0,21.3362769 17.3105643,38.6468412 38.6468412,38.6468412 h 103.0582431 c 21.3362769,0 38.6468412,-17.3105643 38.6468412,-38.6468412 V 294.6468412 C 462.1164863,273.3105643 444.805922,256 423.4696451,256 Z m -231.8810471,0 h -64.4114019 v -51.5291216 c 0,-28.4215311 23.1075904,-51.5291215 51.5291216,-51.5291215 h 6.4411401 c 10.7083956,0 19.3234206,-8.615025 19.3234206,-19.3234206 V 94.97149511 c 0,-10.70839558 -8.615025,-19.32342059 -19.3234206,-19.32342059 h -6.4411401 c -71.1745992,0 -128.82280396,57.64820478 -128.82280396,128.82280388 v 193.2342059 c 0,21.3362769 17.31056427,38.6468412 38.64684117,38.6468412 H 191.588598 c 21.3362769,0 38.6468412,-17.3105643 38.6468412,-38.6468412 V 294.6468412 C 230.2354392,273.3105643 212.9248749,256 191.588598,256 Z"/>
  </g>
</svg>
