<svg xmlns="http://www.w3.org/2000/svg" width="512" height="512" viewBox="0 0 512 512">
  <g
    id="skull"
    fill="currentColor"
    stroke="currentColor"
    stroke-linecap="round"
    stroke-linejoin="round"
    stroke-width="var(--stroke-width, 32px)">
    <path
      fill="none"
      d="M448,225.64v99a64,64,0,0,1-40.23,59.42l-23.68,9.47A32,32,0,0,0,364.6,417l-10,50.14A16,16,0,0,1,338.88,480H173.12a16,16,0,0,1-15.69-12.86L147.4,417a32,32,0,0,0-19.49-23.44l-23.68-9.47A64,64,0,0,1,64,324.67V224C64,118.08,149.77,32.19,255.65,32S448,119.85,448,225.64Z"/>
    <circle
      fill="none"
      cx="168"
      cy="240"
      r="40"/>
    <circle
      fill="none"
      cx="344"
      cy="240"
      r="40"/>
    <polygon
      fill="none"
      points="256 306 240 354 272 354 256 306"/>
    <line
      x1="228"
      y1="448"
      x2="228"
      y2="480"/>
    <line
      x1="284"
      y1="448"
      x2="284"
      y2="480"/>
  </g>
</svg>
