<svg width="450" height="61" viewBox="0 0 450 61" xmlns="http://www.w3.org/2000/svg">
  <g id="email" fill="currentColor">
    <path d="M28.4785 28.7355C26.6265 32.5112 22.658 39.9341 21.184 39.9341C21.184 39.9341 32.7682 5.50294 32.7682 3.45445C32.7682 1.47022 32.7682 0 30.5269 0C28.9925 0 28.4785 0.95999 28.4785 2.55871C28.4785 3.2617 25.727 10.2386 22.5938 18.0471C21.6943 16.0628 19.9671 14.7816 17.8543 14.7816C6.52718 14.7816 0 37.5681 0 39.9341C0 44.0915 2.68722 44.734 5.75994 44.734C8.83267 44.734 11.8411 43.3281 14.2071 41.3438C14.4641 43.6493 16.1913 44.734 17.9866 44.734C22.7865 44.734 28.7355 32.5112 30.3342 28.7355C31.8724 25.024 29.824 25.984 28.4822 28.7355H28.4785ZM16.9586 19.0033C18.6215 19.0033 18.8786 23.3535 18.8786 27.5147C17.6011 30.8406 16.4483 33.8529 15.5526 36.2189C13.0581 38.7776 9.85691 41.6613 7.48717 41.6613C4.35019 41.6613 14.5926 19.0033 16.9586 19.0033Z"/>
    <path d="M51.6241 28.7355C49.7683 32.5112 45.7999 39.9341 44.3296 39.9341C44.3296 39.9341 54.247 16.2556 45.1611 16.2556C42.6667 16.2556 39.0157 20.9913 36.2 25.2772C39.4012 15.6773 42.9199 4.6072 42.9199 3.45445C42.9199 1.47022 42.9199 0 40.6787 0C39.1442 0 38.6302 0.95999 38.6302 2.55871C38.6302 4.15744 24.3588 38.0784 24.3588 40.7694C24.3588 43.4528 26.2145 44.7378 28.1383 44.7378C30.3115 44.7378 31.3358 39.9379 31.3358 39.9379L31.846 38.5281C34.4727 31.3584 42.5986 18.3683 44.0726 18.3683C46.7599 18.3683 36.6459 41.2796 36.6459 42.6856C36.6459 44.2881 37.2884 44.734 41.1284 44.734C45.9926 44.734 51.8811 32.5112 53.4798 28.7355C55.0785 25.024 52.9658 25.984 51.6241 28.7355Z"/>
    <path d="M66.1713 28.7355C64.3194 32.5112 60.3509 39.9341 58.8769 39.9341C58.8769 39.9341 64.3194 23.9355 64.3194 20.0918C64.3194 17.0871 58.4914 16.3841 58.4914 16.3841C58.4914 15.1028 58.1739 12.7974 56.2539 12.7974C54.334 12.7974 53.6272 14.3356 53.6272 15.8058C53.6272 18.7538 55.6114 19.3283 55.6114 19.3283C55.6114 19.3283 53.4382 24.9598 51.643 28.7355C49.98 32.3827 51.3897 33.2784 53.5025 28.7355C55.6114 24.2568 57.3424 19.967 57.3424 19.967C57.7884 19.967 59.0697 20.3526 59.0697 21.5658C59.0697 23.2287 52.1532 40.1911 52.1532 42.3681C52.1532 44.5413 54.2055 44.734 55.6757 44.734C60.5399 44.734 66.4283 32.5112 68.027 28.7355C69.6296 25.024 67.5168 25.984 66.1751 28.7355H66.1713Z"/>
    <path d="M89.7591 28.7355C87.9072 32.5112 83.9387 39.9341 82.4647 39.9341C82.4647 39.9341 89.3774 18.4288 89.3774 16.4483C89.3774 14.3999 89.3774 12.9259 87.1362 12.9259C85.6017 12.9259 85.7302 14.0144 85.1519 15.4884C84.6417 16.7658 82.3362 22.1403 80.095 27.647C76.8975 34.4954 72.8648 41.6613 70.2418 41.6613C66.2091 41.6613 77.472 19.5173 77.472 15.8701C77.472 14.5926 77.5363 12.7974 75.0418 12.7974C72.6078 12.7974 72.5473 14.3999 72.1618 15.2918C68.7678 23.55 62.4977 35.5839 62.4977 40.4481C62.4977 43.1315 63.8394 44.734 68.4503 44.734C69.9206 44.734 70.7558 44.4166 71.1338 44.0311C72.7363 43.1996 74.2103 41.7256 75.6163 39.8056C75.552 40.2554 75.4878 40.5766 75.4878 40.7656C75.4878 43.4566 77.3435 44.734 79.2673 44.734C84.0672 44.734 90.0161 32.5112 91.6148 28.7355C93.1531 25.024 91.1046 25.984 89.7629 28.7355H89.7591Z"/>
    <path d="M107.496 15.9986C107.496 19.6458 100.459 40.4481 96.8079 40.4481C95.7874 40.4481 95.4019 37.8214 95.4019 34.5597C95.4019 25.9802 104.106 14.9743 104.106 13.8858C104.106 12.7974 103.275 12.7974 102.25 12.7974C96.1049 12.7974 88.5535 26.43 88.5535 36.6724C88.5535 41.0226 89.5135 44.7983 94.4419 44.7983C103.656 44.7983 113.959 22.3368 113.959 14.6569C113.959 11.1344 107.496 13.1829 107.496 15.9986ZM138.087 17.0871C138.087 14.0144 136.356 11.9659 134.119 11.9659C130.793 11.9659 126.757 15.4241 123.559 19.2603C126.054 11.5199 128.295 4.35019 128.295 3.45445C128.295 1.47022 128.295 0 126.054 0C124.519 0 124.005 0.95999 124.005 2.55871C124.005 4.15744 109.734 38.0784 109.734 40.7694C109.734 43.4528 111.589 44.7378 113.513 44.7378C115.686 44.7378 116.711 39.9379 116.711 39.9379L119.205 32.5754C119.462 31.8082 119.783 30.9767 120.165 30.1414C120.422 30.2057 120.679 30.2057 120.932 30.2699C119.912 34.1099 119.848 46.4613 122.278 48.9595C123.302 49.9195 124.326 50.494 126.311 50.494C128.231 50.494 129.383 47.7425 127.785 46.208C125.543 43.9026 125.989 32.3827 126.054 29.7597C131.814 27.904 138.087 21.6943 138.087 17.0871ZM132.709 14.9101C132.966 14.9101 133.159 15.2313 133.159 16.0628C133.159 18.8143 128.612 24.1283 123.174 25.0202C127.014 19.5173 131.942 14.9101 132.709 14.9101ZM155.428 16.5088C152.419 16.5088 148.644 21.0555 145.699 25.4057C148.836 15.7416 152.419 4.6072 152.419 3.45445C152.419 1.47022 152.419 0 150.178 0C148.644 0 148.13 0.95999 148.13 2.55871C148.13 4.15744 133.858 38.0784 133.858 40.7694C133.858 43.4528 135.714 44.7378 137.638 44.7378C138.469 44.7378 139.108 44.0311 139.618 43.1996C140.45 44.3523 141.988 44.7983 144.229 44.7983C155.042 44.7983 159.332 27.0725 159.332 23.6785C159.332 20.1598 158.051 16.5126 155.428 16.5126V16.5088ZM143.137 41.6613C142.177 41.6613 141.538 40.6409 141.092 39.1669C141.345 38.5243 141.667 37.5039 142.113 36.1584C144.161 30.0167 151.524 20.2845 153.058 20.2845C153.701 20.2845 153.761 21.5015 153.761 22.2725C153.761 28.0325 146.595 41.6613 143.141 41.6613H143.137ZM185.902 51.2612C181.227 51.2612 175.274 45.6298 175.274 37.3754C175.274 13.2471 199.852 4.6072 201.708 4.6072C206.697 4.6072 209.195 6.33443 209.195 12.7331C209.195 27.0725 198.314 36.4796 197.289 36.4796C197.289 36.4796 202.282 20.8628 202.282 19.3926C202.282 17.9186 202.282 16.8301 200.683 16.8301C199.531 16.8301 199.531 17.5973 199.209 18.7501C199.149 18.9428 198.763 19.9028 198.189 21.184C197.611 18.8143 196.269 16.7658 194.409 16.7658C186.219 16.7658 181.484 34.7524 181.484 36.4796C181.484 39.4881 183.404 39.9341 185.641 39.9341C188.075 39.9341 190.38 38.7171 192.172 37.1184C192.236 39.0384 193.514 39.9341 194.923 39.9341C200.298 39.9341 215.404 26.7512 215.404 12.9901C215.404 2.04848 209.898 0.128503 201.515 0.128503C183.468 0.128503 165.931 18.7501 165.931 37.1826C165.931 50.1085 175.852 54.0165 184.299 54.0165C200.748 54.0165 213.673 33.9852 213.673 31.8082C213.673 29.7597 201.129 51.2612 185.898 51.2612H185.902ZM195.18 28.607C194.538 30.2057 193.899 31.7439 193.389 33.0857C191.529 35.0699 188.842 37.6966 186.926 37.6966C184.621 37.6966 192.104 19.8385 193.771 19.8385C195.18 19.8385 195.245 24.8275 195.18 28.607ZM238.72 12.5403C236.029 12.5403 232.767 16.8943 230.016 21.63C230.912 18.6858 231.422 16.7016 231.422 16.2556C231.422 14.2714 231.422 12.7369 229.245 12.7369C227.646 12.7369 227.2 13.7573 227.2 15.3598C227.2 16.9586 211.84 54.0769 211.84 56.7679C211.84 59.4514 213.692 60.7364 215.616 60.7364C217.789 60.7364 218.814 55.9365 218.814 55.9365C218.814 55.9365 220.669 50.3655 222.975 43.3885C223.871 44.4166 225.345 44.7983 227.518 44.7983C238.27 44.7983 242.56 29.6312 242.56 20.3526C242.56 15.7416 241.279 12.5441 238.72 12.5441V12.5403ZM226.365 41.6613C225.405 41.6613 224.766 40.6409 224.385 39.2311C224.766 37.9499 225.216 36.6724 225.598 35.3911C227.968 28.9282 234.816 16.2556 236.286 16.2556C236.929 16.2556 236.989 21.5015 236.989 22.2725C236.989 28.0325 229.823 41.6613 226.369 41.6613H226.365ZM268.495 28.7355C266.643 32.5112 262.675 39.9341 261.201 39.9341C261.201 39.9341 271.122 16.2556 262.032 16.2556C259.538 16.2556 255.89 20.9913 253.075 25.2772C256.272 15.6773 259.791 4.6072 259.791 3.45445C259.791 1.47022 259.791 0 257.553 0C256.015 0 255.505 0.95999 255.505 2.55871C255.505 4.15744 241.234 38.0784 241.234 40.7694C241.234 43.4528 243.085 44.7378 245.009 44.7378C247.186 44.7378 248.21 39.9379 248.21 39.9379L248.721 38.5281C251.344 31.3584 259.473 18.3683 260.944 18.3683C263.631 18.3683 253.521 41.2796 253.521 42.6856C253.521 44.2881 254.163 44.734 257.999 44.734C262.864 44.734 268.752 32.5112 270.351 28.7355C271.953 25.024 269.84 25.984 268.499 28.7355H268.495ZM273.125 44.6698C275.366 44.6698 277.093 42.6856 277.093 41.1511C277.093 39.5524 275.748 38.5281 273.639 38.5281C271.783 38.5281 269.67 40.0021 269.67 41.8541C269.67 43.0068 270.948 44.6698 273.125 44.6698ZM297.503 28.7355C295.651 32.5112 291.682 39.9341 290.208 39.9341C290.208 39.9341 294.944 25.2168 294.944 23.2287C294.944 21.184 294.944 19.7138 292.703 19.7138C291.168 19.7138 290.529 20.7985 290.019 22.2725C288.991 25.3415 283.231 38.0784 283.231 40.7656C283.231 43.4566 285.087 44.734 287.011 44.734C291.871 44.734 297.76 32.5112 299.358 28.7355C300.961 25.024 298.848 25.984 297.506 28.7355H297.503ZM294.177 16.7658C296.418 16.7658 298.145 14.7816 298.145 13.1829C298.145 11.6484 296.864 10.6241 294.687 10.6241C292.835 10.6241 290.718 12.0981 290.718 13.9501C290.718 15.1028 292.003 16.7658 294.177 16.7658Z"/>
    <path d="M307.628 28.7355C305.776 32.5112 301.807 39.9341 300.333 39.9341C300.333 39.9341 305.069 25.2168 305.069 23.2287C305.069 21.184 305.069 19.7138 302.828 19.7138C301.293 19.7138 300.655 20.7985 300.144 22.2725C299.116 25.3415 293.356 38.0784 293.356 40.7656C293.356 43.4566 295.212 44.7341 297.136 44.7341C301.996 44.7341 307.885 32.5112 309.484 28.7355C311.086 25.024 308.973 25.984 307.632 28.7355H307.628ZM304.302 16.7658C306.539 16.7658 308.27 14.7816 308.27 13.1829C308.27 11.6484 306.989 10.6241 304.812 10.6241C302.96 10.6241 300.844 12.0981 300.844 13.9501C300.844 15.1028 302.129 16.7658 304.302 16.7658Z"/>
    <path d="M322.039 3.90421H321.979C322.043 3.71146 322.043 3.58296 322.043 3.45445C322.043 1.47022 322.043 0 319.866 0C318.267 0 317.817 0.95999 317.817 2.55871C317.817 2.74769 317.628 3.2617 317.371 4.03272C314.045 4.22169 311.226 4.7357 311.226 5.88467C311.226 6.97694 312.122 7.42292 316.026 7.54764C312.25 17.4726 303.482 38.6528 303.482 40.7694C303.482 43.4528 305.337 44.7378 307.261 44.7378C312.122 44.7378 318.071 32.5112 319.609 28.7355C321.211 25.024 319.163 25.984 317.817 28.7355C315.965 32.5112 311.929 39.9341 310.523 39.9341C310.523 39.9341 318.074 17.2798 320.954 7.67992H323.385C326.522 7.67992 327.289 3.90043 322.043 3.90043L322.039 3.90421Z"/>
    <path d="M332.297 28.7355C330.437 32.5112 326.472 39.9341 325.002 39.9341C325.002 39.9341 330.437 23.9355 330.437 20.0918C330.437 17.0871 324.617 16.3841 324.617 16.3841C324.617 15.1028 324.295 12.7974 322.375 12.7974C320.455 12.7974 319.752 14.3356 319.752 15.8058C319.752 18.7538 321.737 19.3283 321.737 19.3283C321.737 19.3283 319.56 24.9598 317.768 28.7355C316.105 32.3827 317.511 33.2784 319.62 28.7355C321.737 24.2568 323.464 19.967 323.464 19.967C323.91 19.967 325.191 20.3526 325.191 21.5658C325.191 23.2287 318.278 40.1911 318.278 42.3681C318.278 44.5413 320.327 44.734 321.797 44.734C326.661 44.734 332.55 32.5112 334.152 28.7355C335.751 25.024 333.638 25.984 332.297 28.7355ZM336.874 44.6698C339.115 44.6698 340.842 42.6856 340.842 41.1511C340.842 39.5524 339.5 38.5281 337.388 38.5281C335.532 38.5281 333.419 40.0021 333.419 41.8541C333.419 43.0068 334.7 44.6698 336.874 44.6698ZM376.997 28.7355C375.145 32.5112 371.176 39.9341 369.702 39.9341C369.702 39.9341 376.615 18.4288 376.615 16.4483C376.615 14.3999 376.615 12.9259 374.374 12.9259C372.839 12.9259 372.839 13.9501 372.389 15.4884C372.261 15.8701 371.747 17.0871 370.98 18.8786C370.212 15.6773 368.296 12.7974 365.798 12.7974C354.471 12.7974 347.94 37.5681 347.94 39.9341C347.94 44.0915 350.567 44.734 353.7 44.734C357.03 44.734 360.231 43.0711 362.725 40.8298C362.725 43.4566 364.581 44.734 366.505 44.734C371.305 44.734 377.254 32.5112 378.852 28.7355C380.391 25.024 378.342 25.984 377 28.7355H376.997ZM364.902 17.0228C366.822 17.0228 366.886 23.9355 366.822 29.1172C365.982 31.1756 365.171 33.2457 364.388 35.3269C361.765 38.0784 358.054 41.6613 355.431 41.6613C352.294 41.6613 362.536 17.0228 364.902 17.0228Z"/>
    <path d="M394.809 28.7997C391.929 35.8371 386.615 41.6613 381.305 41.6613C378.168 41.6613 388.411 17.0228 390.777 17.0228C391.098 17.0228 391.223 17.4726 391.223 18.4326C391.223 20.8628 386.423 24.064 391.223 24.064C392.697 24.064 395.577 22.9113 395.577 18.9428C395.577 14.9743 394.231 12.7974 391.672 12.7974C380.345 12.7974 373.818 37.5681 373.818 39.9341C373.818 44.0915 376.441 44.7341 379.578 44.7341C390.009 44.7341 394.103 34.4312 396.661 28.7355C397.818 26.1125 396.344 25.024 394.809 28.7997ZM399.375 44.6698C401.612 44.6698 403.343 42.6856 403.343 41.1511C403.343 39.5524 401.998 38.5281 399.885 38.5281C398.033 38.5281 395.917 40.0021 395.917 41.8541C395.917 43.0068 397.202 44.6698 399.375 44.6698ZM423.753 28.7355C421.897 32.5112 417.932 39.9341 416.458 39.9341C416.458 39.9341 421.194 25.2168 421.194 23.2287C421.194 21.184 421.194 19.7138 418.953 19.7138C417.418 19.7138 416.776 20.7985 416.266 22.2725C415.241 25.3415 409.481 38.0784 409.481 40.7656C409.481 43.4566 411.337 44.7341 413.257 44.7341C418.121 44.7341 424.01 32.5112 425.608 28.7355C427.207 25.024 425.098 25.984 423.756 28.7355H423.753ZM420.427 16.7658C422.664 16.7658 424.395 14.7816 424.395 13.1829C424.395 11.6484 423.11 10.6241 420.937 10.6241C419.081 10.6241 416.969 12.0981 416.969 13.9501C416.969 15.1028 418.25 16.7658 420.427 16.7658Z"/>
    <path d="M446.808 28.7355C444.948 32.5112 440.983 39.9341 439.513 39.9341C439.513 39.9341 451.415 12.9259 442.325 12.9259C439.509 12.9259 434.517 20.1598 430.998 25.7912C432.408 21.3125 433.557 17.2118 433.557 16.4483C433.557 14.3999 433.557 12.9259 431.319 12.9259C429.717 12.9259 429.845 14.0144 429.271 15.4884C428.247 18.0471 419.607 38.0784 419.607 40.7656C419.607 43.4566 421.459 44.734 423.382 44.734C425.559 44.734 426.583 39.9341 426.583 39.9341C426.583 39.9341 426.901 39.1026 427.286 37.7571C430.488 30.0167 439.831 15.0424 441.237 15.0424C443.928 15.0424 431.829 41.2796 431.829 42.6856C431.829 44.2881 432.472 44.734 436.308 44.734C441.108 44.734 447.061 32.5112 448.663 28.7355C450.262 25.024 448.149 25.984 446.808 28.7355Z"/>
  </g>
</svg>
