<svg xmlns="http://www.w3.org/2000/svg" width="290.626" height="290.626" viewBox="0 0 290.626 290.626">
  <g id="mumbai" fill="currentColor">
  			<path style=" stroke:none;fill-rule:nonzero;fill:rgb(0%,0%,0%);fill-opacity:1;" d="M 285.972656 137.773438 C 283.464844 136.226562 280.339844 136.082031 277.703125 137.398438 L 223.105469 164.699219 C 220.226562 166.140625 218.410156 169.082031 218.410156 172.300781 L 218.410156 281.5 C 218.410156 286.195312 222.210938 289.996094 226.90625 289.996094 C 231.597656 289.996094 235.402344 286.195312 235.402344 281.5 L 235.402344 177.550781 L 273.007812 158.746094 L 273.007812 281.503906 C 273.007812 286.195312 276.8125 290 281.503906 290 C 286.195312 290 289.996094 286.195312 289.996094 281.503906 L 289.996094 145 C 290 142.054688 288.476562 139.320312 285.972656 137.773438 Z M 285.972656 137.773438 "/>
        <path style=" stroke:none;fill-rule:nonzero;fill:rgb(0%,0%,0%);fill-opacity:1;" d="M 71.257812 251.097656 C 77.121094 244.722656 80.703125 236.222656 80.703125 226.902344 C 80.703125 215.519531 75.359375 205.371094 67.054688 198.808594 L 67.054688 127.59375 C 75.359375 121.03125 80.703125 110.878906 80.703125 99.496094 C 80.703125 82.632812 68.976562 68.460938 53.25 64.695312 C 53.347656 64.175781 53.40625 63.644531 53.40625 63.097656 L 53.40625 53.394531 L 54.011719 53.394531 C 58.699219 53.394531 62.503906 49.589844 62.503906 44.898438 C 62.503906 40.207031 58.699219 36.402344 54.011719 36.402344 L 53.40625 36.402344 L 53.40625 8.496094 C 53.40625 3.804688 49.601562 0 44.910156 0 C 40.21875 0 36.414062 3.804688 36.414062 8.496094 L 36.414062 36.402344 L 35.808594 36.402344 C 31.121094 36.402344 27.316406 40.207031 27.316406 44.898438 C 27.316406 49.589844 31.121094 53.394531 35.808594 53.394531 L 36.414062 53.394531 L 36.414062 63.097656 C 36.414062 63.644531 36.472656 64.175781 36.570312 64.695312 C 20.84375 68.460938 9.117188 82.632812 9.117188 99.5 C 9.117188 110.878906 14.457031 121.03125 22.765625 127.59375 L 22.765625 198.808594 C 14.457031 205.371094 9.117188 215.519531 9.117188 226.902344 C 9.117188 236.222656 12.699219 244.722656 18.5625 251.097656 L 1.441406 276.792969 C -2.351562 282.484375 1.808594 290 8.503906 290 C 11.25 290 13.941406 288.671875 15.582031 286.214844 L 32.683594 260.542969 C 33.898438 260.988281 35.144531 261.359375 36.414062 261.671875 L 36.414062 281.5 C 36.414062 286.195312 40.21875 289.996094 44.910156 289.996094 C 49.601562 289.996094 53.40625 286.195312 53.40625 281.5 L 53.40625 261.671875 C 54.675781 261.359375 55.921875 260.988281 57.132812 260.542969 L 74.238281 286.214844 C 75.875 288.671875 78.570312 290 81.316406 290 C 88.023438 290 92.160156 282.46875 88.378906 276.792969 Z M 26.105469 226.902344 C 26.105469 216.53125 34.542969 208.097656 44.910156 208.097656 C 55.28125 208.097656 63.714844 216.53125 63.714844 226.902344 C 63.714844 237.269531 55.28125 245.707031 44.910156 245.707031 C 34.542969 245.707031 26.105469 237.269531 26.105469 226.902344 Z M 44.910156 80.695312 C 55.277344 80.695312 63.714844 89.128906 63.714844 99.496094 C 63.714844 109.867188 55.277344 118.304688 44.910156 118.304688 C 34.542969 118.304688 26.105469 109.867188 26.105469 99.496094 C 26.105469 89.128906 34.542969 80.695312 44.910156 80.695312 Z M 44.910156 135.296875 C 46.660156 135.296875 48.378906 135.164062 50.0625 134.917969 L 50.0625 154.703125 L 39.757812 154.703125 L 39.757812 134.917969 C 41.441406 135.164062 43.160156 135.296875 44.910156 135.296875 Z M 39.757812 171.695312 L 50.0625 171.695312 L 50.0625 191.480469 C 48.378906 191.238281 46.660156 191.105469 44.910156 191.105469 C 43.160156 191.105469 41.441406 191.238281 39.757812 191.480469 Z M 39.757812 171.695312 "/>
        <path style=" stroke:none;fill-rule:nonzero;fill:rgb(0%,0%,0%);fill-opacity:1;" d="M 218.410156 81.296875 C 218.410156 85.988281 222.210938 89.792969 226.90625 89.792969 L 227.507812 89.792969 L 227.507812 135.898438 C 227.507812 140.589844 231.3125 144.394531 236.003906 144.394531 C 240.695312 144.394531 244.5 140.589844 244.5 135.898438 L 244.5 81.296875 C 244.5 76.605469 240.695312 72.800781 236.003906 72.800781 L 235.402344 72.800781 L 235.402344 53.996094 C 235.402344 49.304688 231.597656 45.5 226.90625 45.5 L 199.605469 45.5 C 194.914062 45.5 191.109375 49.304688 191.109375 53.996094 L 191.109375 72.800781 L 190.507812 72.800781 C 185.8125 72.800781 182.011719 76.605469 182.011719 81.296875 L 182.011719 281.5 C 182.011719 286.195312 185.8125 289.996094 190.507812 289.996094 C 195.199219 289.996094 199.003906 286.195312 199.003906 281.5 L 199.003906 89.792969 L 199.605469 89.792969 C 204.296875 89.792969 208.101562 85.988281 208.101562 81.296875 L 208.101562 62.492188 L 218.410156 62.492188 Z M 218.410156 81.296875 "/>
        <path style=" stroke:none;fill-rule:nonzero;fill:rgb(0%,0%,0%);fill-opacity:1;" d="M 117.707031 163.804688 L 85.859375 163.804688 C 81.167969 163.804688 77.363281 167.609375 77.363281 172.300781 C 77.363281 176.992188 81.167969 180.796875 85.859375 180.796875 L 109.210938 180.796875 L 109.210938 281.5 C 109.210938 286.195312 113.015625 289.996094 117.707031 289.996094 C 122.398438 289.996094 126.203125 286.195312 126.203125 281.5 L 126.203125 172.300781 C 126.203125 167.609375 122.398438 163.804688 117.707031 163.804688 Z M 117.707031 163.804688 "/>
        <path style=" stroke:none;fill-rule:nonzero;fill:rgb(0%,0%,0%);fill-opacity:1;" d="M 154.105469 109.203125 L 108.609375 109.203125 C 103.914062 109.203125 100.113281 113.007812 100.113281 117.699219 L 100.113281 145 C 100.113281 149.691406 103.914062 153.496094 108.609375 153.496094 C 113.300781 153.496094 117.105469 149.691406 117.105469 145 L 117.105469 126.195312 L 145.609375 126.195312 L 145.609375 281.5 C 145.609375 286.195312 149.417969 289.996094 154.105469 289.996094 C 158.800781 289.996094 162.601562 286.195312 162.601562 281.5 L 162.601562 117.699219 C 162.601562 113.007812 158.800781 109.203125 154.105469 109.203125 Z M 154.105469 109.203125 "/>
  </g>
</svg>
