<svg width="361" height="61" viewBox="0 0 361 61" fill="none" xmlns="http://www.w3.org/2000/svg">
  <g id="phone" fill="currentColor">
    <path d="M16.3414 26.6229C18.8359 20.2885 20.9524 14.5927 20.9524 14.2715C20.9524 13.5042 20.7597 12.9297 20.0529 12.9297C18.3899 12.9297 14.8069 19.5817 11.5414 26.4302H6.3597C-2.40878 26.4302 -0.103275 29.8884 1.62019 29.8884C4.3112 29.8884 7.12694 30.0169 9.87843 30.1454C7.38395 35.7769 5.46018 40.8301 5.46018 41.4727C5.46018 43.1356 6.03844 44.3526 7.89418 44.3526C8.78993 44.3526 11.8627 37.5684 14.7427 30.3987C18.7112 30.7199 21.9729 30.9127 23.3184 30.9127C24.0856 30.9127 26.5801 30.4629 26.5801 28.6072C26.5801 27.3902 21.9086 26.8157 16.3414 26.6229V26.6229ZM54.6544 0.128503C46.0144 0.128503 40.1297 8.12974 40.1297 12.6085C40.1297 18.1115 42.7527 20.7987 47.8097 20.7987C50.5612 20.7987 52.0314 19.7102 52.0314 18.9467C52.0314 18.24 49.0229 17.023 49.0229 12.8617C49.0229 8.70423 51.1999 4.47873 53.4412 4.47873C55.3612 4.47873 57.2812 7.87274 57.2812 11.3272C57.2812 30.5272 33.9842 42.6216 33.9842 43.4531C33.9842 44.2846 34.8799 44.7986 37.5672 44.7986C46.1467 44.7986 65.5999 24.7029 65.5999 11.3272C65.5999 7.87274 65.3429 0.128503 54.6544 0.128503V0.128503ZM83.0083 0H82.8836C82.4338 0 81.9841 0.188976 81.4739 0.449763C77.3164 2.55873 68.4194 10.7527 68.4194 13.3757C68.4194 14.5285 71.1709 13.3757 73.9224 11.8412C68.4799 23.6144 63.6194 40.2556 63.6194 41.9186C63.6194 43.2641 64.3866 44.7344 67.2666 44.7344C70.1466 44.7344 72.2556 43.0071 72.2556 40.7659C72.2556 25.4702 85.8241 3.96849 85.8241 2.24125C85.8241 1.02425 85.9526 0 83.0083 0V0ZM140.877 7.29447C140.877 4.47873 140.045 0 134.221 0C129.995 0 128.332 1.0885 128.332 2.55873C128.332 4.097 132.622 3.39023 132.622 7.87274C132.622 11.5842 129.549 13.3757 125.581 15.0387C125.126 13.5242 124.909 11.9482 124.938 10.3672C124.938 6.84849 127.055 6.46298 127.055 4.92471C127.055 3.26172 119.307 4.09322 119.307 11.4557C119.307 13.3115 119.821 15.1672 120.652 17.023C114.446 19.5855 108.108 23.3612 108.108 33.5999C108.108 38.5284 110.603 44.6097 119.757 44.6097C128.011 44.6097 132.622 38.0144 132.622 31.6799C132.622 27.1369 130.188 23.9999 128.075 20.4812C134.285 17.5332 140.877 15.103 140.877 7.29447V7.29447ZM127.244 33.2144C127.244 36.3514 125.006 39.6774 123.854 39.6774C121.805 39.6774 117.326 37.9501 117.326 33.2787C117.326 27.9684 120.01 24.9599 123.661 22.7829C125.517 26.1089 127.244 29.5029 127.244 33.2144V33.2144ZM157.51 0H157.382C156.932 0 156.486 0.188976 155.972 0.449763C151.814 2.55873 142.917 10.7527 142.917 13.3757C142.917 14.5285 145.669 13.3757 148.42 11.8412C142.982 23.6144 138.118 40.2556 138.118 41.9186C138.118 43.2641 138.885 44.7344 141.765 44.7344C144.645 44.7344 146.757 43.0071 146.757 40.7659C146.757 25.4702 160.326 3.96849 160.326 2.24125C160.326 1.02425 160.454 0 157.51 0V0ZM180.497 11.7127C183.12 8.06549 184.912 4.79999 184.912 2.30173C184.912 0.385511 180.047 0.128503 171.407 0.128503C162.639 0.128503 165.009 3.58298 166.672 3.58298C171.922 3.58298 175.312 3.96849 177.81 4.28975C175.954 6.08125 173.777 8.44722 171.407 11.1987H169.556C160.787 11.1987 163.153 14.657 164.816 14.657C166.162 14.657 167.375 14.657 168.463 14.7212C159.888 25.0884 150.609 38.0786 150.609 40.9586C150.609 44.5454 153.425 44.6059 155.73 44.6059C160.848 44.6059 160.719 43.1999 160.719 42.1114C160.719 34.8169 170.447 24.4459 177.553 15.5527C178.384 15.617 179.152 15.6812 179.858 15.6812C180.561 15.6812 183.12 15.2957 183.12 13.3757C183.12 12.5442 182.16 12.0302 180.497 11.7127V11.7127ZM200.136 0H200.007C199.557 0 199.111 0.188976 198.597 0.449763C194.44 2.55873 185.543 10.7527 185.543 13.3757C185.543 14.5285 188.294 13.3757 191.046 11.8412C185.603 23.6144 180.743 40.2556 180.743 41.9186C180.743 43.2641 181.51 44.7344 184.39 44.7344C187.27 44.7344 189.379 43.0071 189.379 40.7659C189.379 25.4702 202.948 3.96849 202.948 2.24125C202.948 1.02425 203.08 0 200.136 0V0ZM226.725 1.47401C226.725 0.642519 225.829 0.128503 223.142 0.128503C214.562 0.128503 195.109 20.2242 195.109 33.5999C195.109 37.0544 195.298 44.7986 206.054 44.7986C213.859 44.7986 224.933 35.3272 224.933 23.9357C224.933 18.24 222.949 16.32 219.812 16.32C216.614 16.32 213.795 18.1115 213.795 19.0714C213.795 19.714 216.165 19.0072 216.165 22.9114C216.165 30.3344 209.123 40.4484 207.268 40.4484C205.283 40.4484 203.428 37.0544 203.428 33.5999C203.428 14.4 226.725 2.30551 226.725 1.47401V1.47401ZM243.385 0H243.256C242.81 0 242.36 0.188976 241.85 0.449763C237.689 2.55873 228.792 10.7527 228.792 13.3757C228.792 14.5285 231.543 13.3757 234.295 11.8412C228.856 23.6144 223.992 40.2556 223.992 41.9186C223.992 43.2641 224.759 44.7344 227.639 44.7344C230.519 44.7344 232.632 43.0071 232.632 40.7659C232.632 25.4702 246.2 3.96849 246.2 2.24125C246.2 1.02425 246.329 0 243.385 0V0ZM264.894 0.0642517C256.258 0.0642517 251.393 0.385511 251.393 2.24125C251.393 3.83999 245.951 9.02549 245.951 12.5442C245.951 14.0182 247.81 15.5527 249.984 15.5527H250.433C252.928 15.36 256.579 14.143 256.579 24.7672C256.579 36.0944 251.968 40.4484 249.984 40.4484C249.088 40.4484 248.578 38.2714 248.578 35.7769C248.578 33.2824 250.562 31.9369 250.562 29.5029C250.562 27.1369 249.152 25.9842 246.658 25.9842C244.163 25.9842 239.235 28.2254 239.235 36.3514C239.235 39.6774 240.512 44.6097 249.795 44.6097C259.009 44.6097 265.283 37.6931 265.283 25.0884C265.283 16.32 263.745 12.0945 254.912 11.1987C255.683 9.34675 256.832 6.59148 257.089 4.41448C259.712 4.16125 263.363 3.51873 269.633 3.51873C271.296 3.51873 273.666 0.0642517 264.898 0.0642517H264.894ZM299.099 1.47401C299.099 0.642519 298.203 0.128503 295.516 0.128503C286.936 0.128503 267.483 20.2242 267.483 33.5999C267.483 37.0544 267.672 44.7986 278.428 44.7986C286.237 44.7986 297.307 35.3272 297.307 23.9357C297.307 18.24 295.323 16.32 292.186 16.32C288.988 16.32 286.173 18.1115 286.173 19.0714C286.173 19.714 288.539 19.0072 288.539 22.9114C288.539 30.3344 281.501 40.4484 279.642 40.4484C277.661 40.4484 275.802 37.0544 275.802 33.5999C275.802 14.4 299.099 2.30551 299.099 1.47401V1.47401ZM324.622 11.7127C327.245 8.06549 329.036 4.79999 329.036 2.30173C329.036 0.385511 324.172 0.128503 315.532 0.128503C306.763 0.128503 309.133 3.58298 310.796 3.58298C316.046 3.58298 319.436 3.96849 321.934 4.28975C320.079 6.08125 317.902 8.44722 315.532 11.1987H313.68C304.911 11.1987 307.277 14.657 308.94 14.657C310.286 14.657 311.503 14.657 312.588 14.7212C304.012 25.0884 294.733 38.0786 294.733 40.9586C294.733 44.5454 297.549 44.6059 299.854 44.6059C304.972 44.6059 304.843 43.1999 304.843 42.1114C304.843 34.8169 314.572 24.4459 321.677 15.5527C322.509 15.617 323.276 15.6812 323.983 15.6812C324.686 15.6812 327.245 15.2957 327.245 13.3757C327.245 12.5442 326.285 12.0302 324.622 11.7127V11.7127ZM350.53 0.128503C335.042 0.128503 324.482 20.2242 324.482 33.5999C324.482 37.0544 324.675 44.7986 335.427 44.7986C345.537 44.7986 360.644 35.0097 360.644 10.8812C360.644 5.1855 356.419 0.128503 350.53 0.128503V0.128503ZM336.644 40.4484C334.66 40.4484 332.804 37.0544 332.804 33.5999C332.804 17.023 344.196 4.41448 349.51 4.41448C352.193 4.41448 353.988 6.59148 353.988 10.9455C353.988 20.2242 347.779 40.4484 336.64 40.4484H336.644Z"/>
  </g>
</svg>
