<svg width="361" height="61" viewBox="0 0 361 61" fill="none" xmlns="http://www.w3.org/2000/svg">
  <g id="phone" fill="currentColor">
    <path d="M 220.501 24.181 L 230.401 24.181 A 7.128 7.128 0 0 0 231.78 24.06 Q 233.964 23.627 234.161 21.648 A 4.114 4.114 0 0 0 234.181 21.241 L 234.181 17.161 Q 234.181 14.161 230.521 14.161 L 220.501 14.161 A 4.381 4.381 0 0 1 219.848 14.117 Q 219.008 13.989 218.725 13.497 A 1.175 1.175 0 0 1 218.581 12.901 Q 218.581 11.881 220.501 11.881 L 230.521 11.881 A 6.397 6.397 0 0 0 231.879 11.75 Q 233.842 11.321 234.131 9.494 A 4.31 4.31 0 0 0 234.181 8.821 L 234.181 6.001 A 3.354 3.354 0 0 0 233.937 4.671 Q 233.221 3.001 230.401 3.001 L 220.501 3.001 Q 219.291 3.001 218.843 2.572 A 0.862 0.862 0 0 1 218.581 1.921 A 1.274 1.274 0 0 1 218.711 1.326 Q 218.986 0.796 219.845 0.688 A 3.836 3.836 0 0 1 220.321 0.661 L 233.401 0.661 A 8.521 8.521 0 0 1 235.242 0.842 Q 237.852 1.422 238.249 3.864 A 5.838 5.838 0 0 1 238.321 4.801 L 238.321 22.381 Q 238.321 26.401 233.401 26.401 L 220.321 26.401 A 3.977 3.977 0 0 1 219.729 26.361 Q 218.972 26.246 218.714 25.804 A 1.06 1.06 0 0 1 218.581 25.261 A 1.201 1.201 0 0 1 218.581 25.244 Q 218.595 24.247 220.27 24.185 A 6.214 6.214 0 0 1 220.501 24.181 Z M 323.221 24.181 L 333.121 24.181 A 7.128 7.128 0 0 0 334.5 24.06 Q 336.684 23.627 336.881 21.648 A 4.114 4.114 0 0 0 336.901 21.241 L 336.901 17.161 Q 336.901 14.161 333.241 14.161 L 323.221 14.161 A 4.381 4.381 0 0 1 322.568 14.117 Q 321.728 13.989 321.445 13.497 A 1.175 1.175 0 0 1 321.301 12.901 Q 321.301 11.881 323.221 11.881 L 333.241 11.881 A 6.397 6.397 0 0 0 334.599 11.75 Q 336.562 11.321 336.851 9.494 A 4.31 4.31 0 0 0 336.901 8.821 L 336.901 6.001 A 3.354 3.354 0 0 0 336.657 4.671 Q 335.941 3.001 333.121 3.001 L 323.221 3.001 Q 322.011 3.001 321.563 2.572 A 0.862 0.862 0 0 1 321.301 1.921 A 1.274 1.274 0 0 1 321.431 1.326 Q 321.706 0.796 322.565 0.688 A 3.836 3.836 0 0 1 323.041 0.661 L 336.121 0.661 A 8.521 8.521 0 0 1 337.962 0.842 Q 340.572 1.422 340.969 3.864 A 5.838 5.838 0 0 1 341.041 4.801 L 341.041 22.381 Q 341.041 26.401 336.121 26.401 L 323.041 26.401 A 3.977 3.977 0 0 1 322.449 26.361 Q 321.692 26.246 321.434 25.804 A 1.06 1.06 0 0 1 321.301 25.261 A 1.201 1.201 0 0 1 321.301 25.244 Q 321.315 24.247 322.99 24.185 A 6.214 6.214 0 0 1 323.221 24.181 Z M 102.421 14.221 L 95.401 14.221 A 9.715 9.715 0 0 1 93.517 14.055 Q 90.545 13.465 90.269 10.774 A 5.616 5.616 0 0 1 90.241 10.201 L 90.241 4.801 A 5.003 5.003 0 0 1 90.526 3.038 Q 91.353 0.834 94.578 0.674 A 10.498 10.498 0 0 1 95.101 0.661 L 107.641 0.661 Q 109.08 0.661 109.634 1.137 A 0.983 0.983 0 0 1 109.981 1.921 A 0.834 0.834 0 0 1 109.492 2.682 Q 108.911 3.001 107.641 3.001 L 97.861 3.001 Q 94.889 3.001 94.499 5.493 A 5.241 5.241 0 0 0 94.441 6.301 L 94.441 8.161 A 6.3 6.3 0 0 0 94.588 9.587 Q 95.042 11.533 96.9 11.87 A 4.713 4.713 0 0 0 97.741 11.941 L 104.821 11.941 A 9.715 9.715 0 0 1 106.704 12.107 Q 109.676 12.697 109.952 15.388 A 5.616 5.616 0 0 1 109.981 15.961 L 109.981 22.381 Q 109.981 26.401 105.061 26.401 L 92.581 26.401 Q 91.142 26.401 90.588 25.924 A 0.983 0.983 0 0 1 90.241 25.141 A 0.686 0.686 0 0 1 90.616 24.537 Q 91.146 24.215 92.426 24.184 A 11.55 11.55 0 0 1 92.701 24.181 L 102.541 24.181 A 4.483 4.483 0 0 0 103.843 24.008 Q 105.781 23.42 105.781 20.821 L 105.781 18.241 A 7.028 7.028 0 0 0 105.637 16.749 Q 105.166 14.593 103.16 14.276 A 4.731 4.731 0 0 0 102.421 14.221 Z M 25.681 22.141 L 25.681 5.041 A 5.793 5.793 0 0 1 25.933 3.255 Q 26.542 1.375 28.625 0.858 A 7.47 7.47 0 0 1 30.421 0.661 L 42.421 0.661 Q 43.774 0.661 44.324 1.062 A 0.868 0.868 0 0 1 44.701 1.801 Q 44.701 2.869 42.846 2.986 A 7.712 7.712 0 0 1 42.361 3.001 L 33.301 3.001 A 4.278 4.278 0 0 0 31.83 3.233 Q 29.821 3.967 29.821 7.021 L 29.821 8.521 A 4.948 4.948 0 0 0 29.979 9.83 Q 30.391 11.328 31.877 11.732 A 4.752 4.752 0 0 0 33.121 11.881 L 40.141 11.881 A 9.781 9.781 0 0 1 42 12.041 Q 45.241 12.672 45.241 15.781 L 45.241 22.261 Q 45.241 26.102 40.954 26.379 A 10.744 10.744 0 0 1 40.261 26.401 L 30.481 26.401 Q 25.681 26.401 25.681 22.141 Z M 256.921 15.181 L 249.421 15.181 A 9.358 9.358 0 0 1 247.559 15.012 Q 244.321 14.352 244.321 11.101 L 244.321 2.761 Q 244.321 0.099 246.218 0.004 A 2.86 2.86 0 0 1 246.361 0.001 Q 248.118 0.001 248.405 2.101 A 6.673 6.673 0 0 1 248.461 3.001 L 248.461 9.961 A 3.456 3.456 0 0 0 248.675 11.23 Q 249.332 12.901 252.001 12.901 L 256.621 12.901 A 5.204 5.204 0 0 0 257.843 12.77 Q 259.481 12.373 259.789 10.77 A 4.286 4.286 0 0 0 259.861 9.961 L 259.861 3.121 Q 259.861 0.001 261.961 0.001 A 2.32 2.32 0 0 1 262.943 0.194 Q 263.927 0.649 264.089 2.178 A 6.124 6.124 0 0 1 264.121 2.821 L 264.061 24.361 A 4.871 4.871 0 0 1 263.974 25.324 Q 263.634 27.001 261.961 27.001 A 2.023 2.023 0 0 1 260.858 26.714 Q 260.056 26.207 259.862 24.804 A 7.223 7.223 0 0 1 259.801 23.821 L 259.861 18.301 A 4.785 4.785 0 0 0 259.721 17.09 Q 259.316 15.545 257.734 15.25 A 4.442 4.442 0 0 0 256.921 15.181 Z M 212.221 4.381 L 212.221 5.401 A 5.22 5.22 0 0 1 211.768 7.5 A 6.659 6.659 0 0 1 211.381 8.251 A 18.093 18.093 0 0 1 210.542 9.525 Q 210.088 10.158 209.538 10.829 A 31.314 31.314 0 0 1 209.161 11.281 L 204.781 16.141 Q 204.181 16.921 203.911 17.821 Q 203.641 18.721 203.641 19.741 L 203.641 24.121 A 5.896 5.896 0 0 1 203.555 25.176 Q 203.224 26.987 201.613 27.058 A 3.03 3.03 0 0 1 201.481 27.061 Q 199.68 27.061 199.302 25.527 A 3.875 3.875 0 0 1 199.201 24.601 L 199.201 19.321 A 7.117 7.117 0 0 1 200.234 15.67 A 10.398 10.398 0 0 1 201.601 13.861 L 206.161 8.941 Q 206.821 8.161 207.211 7.261 Q 207.601 6.361 207.601 5.341 L 207.601 4.741 Q 207.601 3.353 206.456 3.072 A 2.755 2.755 0 0 0 205.801 3.001 L 194.461 3.001 Q 192.121 3.001 192.121 1.801 A 0.91 0.91 0 0 1 192.682 0.95 Q 193.125 0.725 193.918 0.675 A 7.675 7.675 0 0 1 194.401 0.661 L 207.601 0.661 Q 212.221 0.661 212.221 4.381 Z M 161.341 4.441 L 161.341 22.381 Q 161.341 26.401 156.421 26.401 L 146.401 26.401 Q 142.162 26.401 141.666 23.266 A 5.671 5.671 0 0 1 141.601 22.381 L 141.601 4.441 A 4.188 4.188 0 0 1 141.915 2.754 Q 142.699 0.959 145.438 0.703 A 10.383 10.383 0 0 1 146.401 0.661 L 156.421 0.661 A 9.389 9.389 0 0 1 158.216 0.817 Q 161.341 1.429 161.341 4.441 Z M 19.501 4.861 L 19.501 22.321 A 5.354 5.354 0 0 1 19.261 23.997 Q 18.47 26.398 15.068 26.401 A 10.07 10.07 0 0 1 15.061 26.401 L 4.441 26.401 Q 0.001 26.401 0.001 22.321 L 0.001 4.861 A 5.607 5.607 0 0 1 0.24 3.148 Q 1.038 0.661 4.501 0.661 L 15.001 0.661 Q 19.501 0.661 19.501 4.861 Z M 135.421 4.861 L 135.421 22.321 A 5.354 5.354 0 0 1 135.181 23.997 Q 134.39 26.398 130.988 26.401 A 10.07 10.07 0 0 1 130.981 26.401 L 120.361 26.401 Q 115.921 26.401 115.921 22.321 L 115.921 4.861 A 5.607 5.607 0 0 1 116.16 3.148 Q 116.958 0.661 120.421 0.661 L 130.921 0.661 Q 135.421 0.661 135.421 4.861 Z M 289.501 4.861 L 289.501 22.321 A 5.354 5.354 0 0 1 289.261 23.997 Q 288.47 26.398 285.068 26.401 A 10.07 10.07 0 0 1 285.061 26.401 L 274.441 26.401 Q 270.001 26.401 270.001 22.321 L 270.001 4.861 A 5.607 5.607 0 0 1 270.24 3.148 Q 271.038 0.661 274.501 0.661 L 285.001 0.661 Q 289.501 0.661 289.501 4.861 Z M 315.181 4.861 L 315.181 22.321 A 5.354 5.354 0 0 1 314.941 23.997 Q 314.15 26.398 310.748 26.401 A 10.07 10.07 0 0 1 310.741 26.401 L 300.121 26.401 Q 295.681 26.401 295.681 22.321 L 295.681 4.861 A 5.607 5.607 0 0 1 295.92 3.148 Q 296.718 0.661 300.181 0.661 L 310.681 0.661 Q 315.181 0.661 315.181 4.861 Z M 73.801 23.701 L 73.801 6.181 Q 73.801 4.722 73.168 4.115 A 1.436 1.436 0 0 0 73.021 3.991 Q 72.241 3.421 71.281 3.211 Q 70.321 3.001 69.511 2.821 Q 68.776 2.658 68.708 2 A 1.353 1.353 0 0 1 68.701 1.861 A 0.91 0.91 0 0 1 69.262 1.01 Q 69.705 0.785 70.498 0.735 A 7.675 7.675 0 0 1 70.981 0.721 L 73.561 0.721 A 7.45 7.45 0 0 1 75.356 0.917 Q 77.695 1.5 78.137 3.809 A 6.23 6.23 0 0 1 78.241 4.981 L 78.241 23.941 A 5.974 5.974 0 0 1 78.153 25.017 Q 77.798 26.941 76.021 26.941 A 2.1 2.1 0 0 1 74.9 26.656 Q 74.06 26.14 73.862 24.687 A 7.33 7.33 0 0 1 73.801 23.701 Z M 176.521 23.701 L 176.521 6.181 Q 176.521 4.722 175.888 4.115 A 1.436 1.436 0 0 0 175.741 3.991 Q 174.961 3.421 174.001 3.211 Q 173.041 3.001 172.231 2.821 Q 171.496 2.658 171.428 2 A 1.353 1.353 0 0 1 171.421 1.861 A 0.91 0.91 0 0 1 171.982 1.01 Q 172.425 0.785 173.218 0.735 A 7.675 7.675 0 0 1 173.701 0.721 L 176.281 0.721 A 7.45 7.45 0 0 1 178.076 0.917 Q 180.415 1.5 180.857 3.809 A 6.23 6.23 0 0 1 180.961 4.981 L 180.961 23.941 A 5.974 5.974 0 0 1 180.873 25.017 Q 180.518 26.941 178.741 26.941 A 2.1 2.1 0 0 1 177.62 26.656 Q 176.78 26.14 176.582 24.687 A 7.33 7.33 0 0 1 176.521 23.701 Z M 148.921 24.181 L 153.361 24.181 Q 154.021 24.181 154.681 24.001 Q 155.341 23.821 155.911 23.401 A 2.635 2.635 0 0 0 156.581 22.667 A 3.407 3.407 0 0 0 156.811 22.231 Q 157.06 21.664 157.121 20.84 A 7.594 7.594 0 0 0 157.141 20.281 L 157.141 9.361 A 1.269 1.269 0 0 0 157.125 9.149 Q 157.059 8.761 156.721 8.761 A 0.767 0.767 0 0 0 156.421 8.837 Q 155.857 9.084 154.801 10.141 L 147.361 20.101 Q 145.685 21.717 145.681 22.736 A 1.248 1.248 0 0 0 145.681 22.741 Q 145.681 24.181 148.921 24.181 Z M 147.841 16.801 L 155.461 7.201 A 6.881 6.881 0 0 0 156.081 6.563 Q 156.715 5.812 156.82 5.13 A 1.761 1.761 0 0 0 156.841 4.861 A 1.424 1.424 0 0 0 156.654 4.125 Q 156.385 3.669 155.731 3.421 A 7.028 7.028 0 0 0 154.739 3.123 Q 154.183 3.002 153.669 3.001 A 4.306 4.306 0 0 0 153.661 3.001 L 149.461 3.001 A 5.732 5.732 0 0 0 148.401 3.092 Q 147.811 3.203 147.351 3.45 A 2.751 2.751 0 0 0 146.671 3.961 A 2.838 2.838 0 0 0 146.069 4.939 Q 145.746 5.785 145.741 7.042 A 9.948 9.948 0 0 0 145.741 7.081 L 145.741 17.521 A 1.452 1.452 0 0 0 145.751 17.704 Q 145.797 18.061 146.041 18.061 A 0.503 0.503 0 0 0 146.232 18.009 Q 146.693 17.805 147.841 16.801 Z M 11.761 14.221 L 7.681 14.221 A 4.455 4.455 0 0 0 6.17 14.456 Q 4.214 15.159 4.089 17.969 A 8.851 8.851 0 0 0 4.081 18.361 L 4.081 21.001 A 4.076 4.076 0 0 0 4.275 22.317 Q 4.895 24.136 7.493 24.18 A 7.668 7.668 0 0 0 7.621 24.181 L 11.881 24.181 A 4.455 4.455 0 0 0 13.346 23.96 Q 15.336 23.268 15.417 20.408 A 8.711 8.711 0 0 0 15.421 20.161 L 15.421 17.521 A 4.244 4.244 0 0 0 15.22 16.155 Q 14.579 14.267 11.893 14.222 A 7.9 7.9 0 0 0 11.761 14.221 Z M 127.681 14.221 L 123.601 14.221 A 4.455 4.455 0 0 0 122.09 14.456 Q 120.134 15.159 120.009 17.969 A 8.851 8.851 0 0 0 120.001 18.361 L 120.001 21.001 A 4.076 4.076 0 0 0 120.195 22.317 Q 120.815 24.136 123.413 24.18 A 7.668 7.668 0 0 0 123.541 24.181 L 127.801 24.181 A 4.455 4.455 0 0 0 129.266 23.96 Q 131.256 23.268 131.337 20.408 A 8.711 8.711 0 0 0 131.341 20.161 L 131.341 17.521 A 4.244 4.244 0 0 0 131.14 16.155 Q 130.499 14.267 127.813 14.222 A 7.9 7.9 0 0 0 127.681 14.221 Z M 281.761 14.221 L 277.681 14.221 A 4.455 4.455 0 0 0 276.17 14.456 Q 274.214 15.159 274.089 17.969 A 8.851 8.851 0 0 0 274.081 18.361 L 274.081 21.001 A 4.076 4.076 0 0 0 274.275 22.317 Q 274.895 24.136 277.493 24.18 A 7.668 7.668 0 0 0 277.621 24.181 L 281.881 24.181 A 4.455 4.455 0 0 0 283.346 23.96 Q 285.336 23.268 285.417 20.408 A 8.711 8.711 0 0 0 285.421 20.161 L 285.421 17.521 A 4.244 4.244 0 0 0 285.22 16.155 Q 284.579 14.267 281.893 14.222 A 7.9 7.9 0 0 0 281.761 14.221 Z M 307.441 14.221 L 303.361 14.221 A 4.455 4.455 0 0 0 301.85 14.456 Q 299.894 15.159 299.769 17.969 A 8.851 8.851 0 0 0 299.761 18.361 L 299.761 21.001 A 4.076 4.076 0 0 0 299.955 22.317 Q 300.575 24.136 303.173 24.18 A 7.668 7.668 0 0 0 303.301 24.181 L 307.561 24.181 A 4.455 4.455 0 0 0 309.026 23.96 Q 311.016 23.268 311.097 20.408 A 8.711 8.711 0 0 0 311.101 20.161 L 311.101 17.521 A 4.244 4.244 0 0 0 310.9 16.155 Q 310.259 14.267 307.573 14.222 A 7.9 7.9 0 0 0 307.441 14.221 Z M 37.381 14.161 L 33.481 14.161 Q 29.821 14.161 29.821 18.361 L 29.821 21.001 A 4.076 4.076 0 0 0 30.015 22.317 Q 30.635 24.136 33.233 24.18 A 7.668 7.668 0 0 0 33.361 24.181 L 37.501 24.181 A 4.601 4.601 0 0 0 38.99 23.96 Q 41.101 23.239 41.101 20.161 L 41.101 17.521 A 4.328 4.328 0 0 0 40.896 16.13 Q 40.241 14.198 37.487 14.162 A 8.062 8.062 0 0 0 37.381 14.161 Z M 11.761 3.001 L 7.681 3.001 A 4.668 4.668 0 0 0 6.194 3.217 Q 4.081 3.927 4.081 6.961 L 4.081 8.521 Q 4.081 11.249 6.333 11.801 A 5.422 5.422 0 0 0 7.621 11.941 L 11.881 11.941 A 4.237 4.237 0 0 0 13.388 11.694 Q 15.233 10.995 15.403 8.308 A 8.969 8.969 0 0 0 15.421 7.741 L 15.421 6.121 A 3.773 3.773 0 0 0 15.206 4.793 Q 14.583 3.132 12.154 3.01 A 7.901 7.901 0 0 0 11.761 3.001 Z M 127.681 3.001 L 123.601 3.001 A 4.668 4.668 0 0 0 122.114 3.217 Q 120.001 3.927 120.001 6.961 L 120.001 8.521 Q 120.001 11.249 122.253 11.801 A 5.422 5.422 0 0 0 123.541 11.941 L 127.801 11.941 A 4.237 4.237 0 0 0 129.308 11.694 Q 131.153 10.995 131.323 8.308 A 8.969 8.969 0 0 0 131.341 7.741 L 131.341 6.121 A 3.773 3.773 0 0 0 131.126 4.793 Q 130.503 3.132 128.074 3.01 A 7.901 7.901 0 0 0 127.681 3.001 Z M 281.761 3.001 L 277.681 3.001 A 4.668 4.668 0 0 0 276.194 3.217 Q 274.081 3.927 274.081 6.961 L 274.081 8.521 Q 274.081 11.249 276.333 11.801 A 5.422 5.422 0 0 0 277.621 11.941 L 281.881 11.941 A 4.237 4.237 0 0 0 283.388 11.694 Q 285.233 10.995 285.403 8.308 A 8.969 8.969 0 0 0 285.421 7.741 L 285.421 6.121 A 3.773 3.773 0 0 0 285.206 4.793 Q 284.583 3.132 282.154 3.01 A 7.901 7.901 0 0 0 281.761 3.001 Z M 307.441 3.001 L 303.361 3.001 A 4.668 4.668 0 0 0 301.874 3.217 Q 299.761 3.927 299.761 6.961 L 299.761 8.521 Q 299.761 11.249 302.013 11.801 A 5.422 5.422 0 0 0 303.301 11.941 L 307.561 11.941 A 4.237 4.237 0 0 0 309.068 11.694 Q 310.913 10.995 311.083 8.308 A 8.969 8.969 0 0 0 311.101 7.741 L 311.101 6.121 A 3.773 3.773 0 0 0 310.886 4.793 Q 310.263 3.132 307.834 3.01 A 7.901 7.901 0 0 0 307.441 3.001 Z" vector-effect="non-scaling-stroke"/>
  </g>
</svg>
