<svg xmlns="http://www.w3.org/2000/svg" width="290.626" height="290.626" viewBox="0 0 290.626 290.626">>
  <g id="roorkee" fill="currentColor" stroke="currentColor">
    <path style=" stroke:none;fill-rule:nonzero;fill:rgb(0%,0%,0%);fill-opacity:1;" d="M 238.898438 182.351562 L 238.898438 27.757812 L 165.910156 27.757812 L 165.910156 64.96875 C 165.910156 86.023438 158.339844 105.03125 146.5625 117.148438 C 134.839844 105.097656 127.269531 86.195312 127.269531 64.96875 L 127.269531 27.757812 L 54.285156 27.757812 L 54.285156 129.269531 C 50.113281 128.035156 46.082031 126.082031 42.230469 123.40625 L 36.273438 138.640625 C 41.90625 142.550781 48.003906 145.28125 54.277344 146.742188 L 54.277344 182.351562 L 39.253906 182.351562 L 39.253906 199.527344 L 54.277344 199.527344 L 54.277344 262.511719 L 127.269531 262.511719 L 127.269531 199.527344 L 165.910156 199.527344 L 165.910156 262.511719 L 238.898438 262.511719 L 238.898438 199.527344 L 253.925781 199.527344 L 253.925781 182.351562 Z M 67.160156 147.941406 C 69.335938 147.839844 71.488281 147.59375 73.601562 147.203125 L 73.601562 182.351562 L 67.160156 182.351562 Z M 114.386719 245.335938 L 67.160156 245.335938 L 67.160156 199.527344 L 73.601562 199.527344 L 73.601562 236.746094 L 86.484375 236.746094 L 86.484375 199.527344 L 95.070312 199.527344 L 95.070312 236.746094 L 107.949219 236.746094 L 107.949219 199.527344 L 114.390625 199.527344 L 114.390625 245.335938 Z M 86.484375 182.351562 L 86.484375 142.90625 C 89.457031 141.445312 92.324219 139.683594 95.070312 137.660156 L 95.070312 182.351562 Z M 114.386719 182.351562 L 107.949219 182.351562 L 107.949219 125.039062 C 110.277344 122.082031 112.425781 118.882812 114.386719 115.476562 Z M 114.386719 64.96875 C 114.386719 76.777344 112.046875 87.867188 107.949219 97.460938 L 107.949219 82.148438 C 107.949219 77.40625 105.0625 53.519531 101.511719 53.519531 C 97.953125 53.519531 95.070312 77.40625 95.070312 82.148438 L 95.070312 117.179688 C 92.40625 119.910156 89.53125 122.289062 86.484375 124.265625 L 86.484375 82.148438 C 86.484375 77.40625 83.601562 53.519531 80.042969 53.519531 C 76.484375 53.519531 73.601562 77.40625 73.601562 82.148438 L 73.601562 129.820312 C 71.496094 130.316406 69.34375 130.628906 67.160156 130.753906 L 67.160156 44.929688 L 114.386719 44.929688 Z M 127.269531 115.476562 C 129.492188 119.335938 131.964844 122.933594 134.65625 126.214844 C 132.277344 127.472656 129.8125 128.496094 127.269531 129.25 Z M 165.910156 182.351562 L 127.269531 182.351562 L 127.269531 146.765625 C 134.089844 145.179688 140.617188 142.101562 146.617188 137.683594 C 152.53125 142.039062 159.027344 145.15625 165.910156 146.757812 Z M 165.910156 129.25 C 163.378906 128.496094 160.914062 127.488281 158.546875 126.238281 C 159.773438 124.738281 160.96875 123.171875 162.113281 121.53125 C 163.453125 119.609375 164.71875 117.613281 165.910156 115.550781 Z M 178.789062 147.941406 C 180.96875 147.839844 183.117188 147.59375 185.230469 147.203125 L 185.230469 182.351562 L 178.789062 182.351562 Z M 226.015625 245.335938 L 178.789062 245.335938 L 178.789062 199.527344 L 185.230469 199.527344 L 185.230469 236.746094 L 198.113281 236.746094 L 198.113281 199.527344 L 206.699219 199.527344 L 206.699219 236.746094 L 219.582031 236.746094 L 219.582031 199.527344 L 226.015625 199.527344 Z M 198.113281 182.351562 L 198.113281 142.90625 C 201.085938 141.445312 203.953125 139.683594 206.699219 137.660156 L 206.699219 182.351562 Z M 226.015625 182.351562 L 219.578125 182.351562 L 219.578125 125.039062 C 221.902344 122.082031 224.054688 118.882812 226.015625 115.476562 Z M 226.015625 64.96875 C 226.015625 76.777344 223.675781 87.867188 219.578125 97.460938 L 219.578125 82.148438 C 219.578125 77.40625 216.695312 53.519531 213.140625 53.519531 C 209.582031 53.519531 206.699219 77.40625 206.699219 82.148438 L 206.699219 117.179688 C 204.035156 119.910156 201.160156 122.289062 198.109375 124.265625 L 198.109375 82.148438 C 198.109375 77.40625 195.226562 53.519531 191.671875 53.519531 C 188.113281 53.519531 185.230469 77.40625 185.230469 82.148438 L 185.230469 129.820312 C 183.125 130.316406 180.976562 130.628906 178.789062 130.753906 L 178.789062 44.929688 L 226.015625 44.929688 Z M 226.015625 64.96875 "/>
  </g>
</svg>
