<svg xmlns="http://www.w3.org/2000/svg" width="855" height="233" viewBox="0 0 855 233">
  <g
    id="site_title"
    fill="var(--fill)"
    stroke="var(--stroke)"
    stroke-width="var(--stroke-width)"
    stroke-dashoffset="var(--stroke-dashoffset)"
    stroke-dasharray="30em">
    <!-- Dhruv -->
    <path
      d="M2.65 2.31995H36.778C42.25 2.31995 47.194 3.13595 51.61 4.76795C56.122 6.30395 59.962 8.55994 63.13
      11.5359C66.298 14.5119 68.746 18.0639 70.474 22.1919C72.202 26.3199 73.066 30.9279 73.066 36.0159V72.1599C73.066
      77.2479 72.202 81.9039 70.474 86.1279C68.746 90.2559 66.298 93.808 63.13 96.784C59.962 99.664 56.122 101.92 51.61
      103.552C47.194 105.184 42.25 106 36.778 106H2.65V2.31995ZM24.25 85.84H36.778C41.194 85.84 44.746 84.5919 47.434
      82.0959C50.122 79.5999 51.466 76.2879 51.466 72.1599V36.0159C51.466 31.984 50.122 28.72 47.434 26.2239C44.746
      23.7279 41.194 22.4799 36.778 22.4799H24.25V85.84Z"/>
    <path
      d="M88.7058 2.31995H110.306V26.7999C110.306 28.2399 110.21 29.7759 110.018 31.4079C109.922 33.0399 109.778 34.5279
      109.586 35.8719C109.394 37.2159 109.25 38.3199 109.154 39.1839C109.058 40.0479 109.01 40.4799 109.01
      40.4799H110.594C111.266 35.6799 113.378 31.9839 116.93 29.3919C120.482 26.7039 125.138 25.36 130.898 25.36C138.962
      25.36 145.298 27.9999 149.906 33.2799C154.61 38.5599 156.962 45.7599 156.962 54.8799V106H135.362V57.04C135.362
      53.0079 134.21 49.8399 131.906 47.5359C129.698 45.2319 126.674 44.08 122.834 44.08C118.994 44.08 115.922 45.2319
      113.618 47.5359C111.41 49.8399 110.306 53.0079 110.306 57.04V106H88.7058V2.31995Z"/>
    <path
      d="M198.521 26.7999V40.4799H199.961C200.729 35.5839 202.985 31.8399 206.729 29.2479C210.473 26.6559 215.418 25.36
      221.561 25.36C230.298 25.36 237.065 28.0479 241.865 33.4239C246.666 38.7039 249.065 46.0959 249.065
      55.5999V62.08H226.026V57.04C226.026 52.7199 224.777 49.36 222.282 46.9599C219.785 44.5599 216.378 43.3599 212.058
      43.3599C208.218 43.3599 205.193 44.6079 202.985 47.1039C200.777 49.5039 199.673 52.816 199.673
      57.04V106H178.073V26.7999H198.521Z"/>
    <path
      d="M283.569 26.7999V75.0399C283.569 84.1599 287.649 88.72 295.809 88.72C303.969 88.72 308.049 84.1599 308.049
      75.0399V26.7999H329.649V75.1839C329.649 85.3599 326.625 93.28 320.577 98.944C314.625 104.608 306.369 107.44
      295.809 107.44C285.057 107.44 276.705 104.608 270.753 98.944C264.897 93.184 261.969 85.2639 261.969
      75.1839V26.7999H283.569Z"/>
    <path
      d="M342.265 26.7999H364.585L379.561 74.608C380.137 76.336 380.569 78.1119 380.857 79.9359C381.241 81.7599 381.529
      83.44 381.721 84.976C381.913 86.8 382.057 88.5279 382.153 90.1599H383.017C383.113 88.5279 383.257 86.8 383.449
      84.976C383.641 83.44 383.929 81.7599 384.313 79.9359C384.697 78.1119 385.129 76.336 385.609 74.608L400.009
      26.7999H422.041L395.257 106H369.337L342.265 26.7999Z"/>

    <!-- Bhanushali -->
    <path
      d="M2.8 125.01H37.504C42.88 125.01 47.728 125.634 52.048 126.882C56.368 128.13 60.016 129.906 62.992 132.21C66.064
      134.514 68.416 137.298 70.048 140.562C71.68 143.826 72.496 147.474 72.496 151.506C72.496 157.938 70.672 163.122
      67.024 167.058C63.472 170.994 58.528 173.25 52.192 173.826V175.41C59.104 175.89 64.528 178.194 68.464
      182.322C72.4 186.45 74.368 191.874 74.368 198.594C74.368 203.202 73.504 207.378 71.776 211.122C70.144 214.77
      67.744 217.938 64.576 220.626C61.504 223.218 57.712 225.234 53.2 226.674C48.784 228.018 43.84 228.69 38.368
      228.69H2.8V125.01ZM23.68 183.618V211.41H37.504C42.304 211.41 46 210.21 48.592 207.81C51.28 205.41 52.624 202.002
      52.624 197.586C52.624 193.17 51.28 189.762 48.592 187.362C46 184.866 42.304 183.618 37.504 183.618H23.68ZM37.216
      166.338C41.344 166.338 44.608 165.234 47.008 163.026C49.504 160.818 50.752 157.89 50.752 154.242C50.752 150.594
      49.552 147.714 47.152 145.602C44.752 143.394 41.44 142.29 37.216 142.29H23.68V166.338H37.216Z"/>
    <path
      d="M88.8558 125.01H110.456V149.49C110.456 150.93 110.36 152.466 110.168 154.098C110.072 155.73 109.928 157.218
      109.736 158.562C109.544 159.906 109.4 161.01 109.304 161.874C109.208 162.738 109.16 163.17 109.16
      163.17H110.744C111.416 158.37 113.528 154.674 117.08 152.082C120.632 149.394 125.288 148.05 131.048 148.05C139.112
      148.05 145.448 150.69 150.056 155.97C154.76 161.25 157.112 168.45 157.112 177.57V228.69H135.512V179.73C135.512
      175.698 134.36 172.53 132.056 170.226C129.848 167.922 126.824 166.77 122.984 166.77C119.144 166.77 116.072 167.922
      113.768 170.226C111.56 172.53 110.456 175.698 110.456 179.73V228.69H88.8558V125.01Z"/>
    <path
      d="M172.607 207.09C172.607 199.026 175.535 192.69 181.391 188.082C187.247 183.378 195.215 181.026 205.295
      181.026H222.432V173.97C222.432 171.186 221.231 168.93 218.831 167.202C216.527 165.474 213.359 164.61 209.327
      164.61C205.775 164.61 202.8 165.282 200.4 166.626C198.096 167.874 196.607 169.602 195.935 171.81H175.055C175.631
      168.162 176.831 164.898 178.655 162.018C180.575 159.042 183.023 156.546 185.999 154.53C188.975 152.418 192.431
      150.834 196.367 149.778C200.303 148.626 204.623 148.05 209.327 148.05C214.511 148.05 219.215 148.674 223.439
      149.922C227.759 151.17 231.407 152.946 234.383 155.25C237.455 157.458 239.807 160.146 241.439 163.314C243.167
      166.482 244.031 170.034 244.031 173.97V228.69H223.439V212.85H222.143C221.471 218.226 218.928 222.45 214.512
      225.522C210.192 228.594 204.575 230.13 197.663 230.13C189.983 230.13 183.888 228.066 179.376 223.938C174.864
      219.81 172.607 214.194 172.607 207.09ZM194.208 203.634C194.208 206.706 195.264 209.154 197.376 210.978C199.584
      212.706 202.704 213.57 206.736 213.57C211.344 213.57 215.087 212.514 217.967 210.402C220.943 208.194 222.432
      205.41 222.432 202.05V193.986H205.295C201.935 193.986 199.248 194.85 197.232 196.578C195.216 198.21 194.208
      200.562 194.208 203.634Z"/>
    <path
      d="M261.543 149.49H281.991V163.17H283.431C284.103 158.274 286.215 154.53 289.767 151.938C293.319 149.346 297.975
      148.05 303.735 148.05C311.895 148.05 318.279 150.69 322.887 155.97C327.495 161.154 329.799 168.354 329.799
      177.57V228.69H308.199V179.73C308.199 175.698 307.047 172.53 304.743 170.226C302.535 167.922 299.511 166.77 295.671
      166.77C291.831 166.77 288.759 167.922 286.455 170.226C284.247 172.53 283.143 175.698 283.143
      179.73V228.69H261.543V149.49Z"/>
    <path
      d="M370.063 149.49V197.73C370.063 206.85 374.143 211.41 382.303 211.41C390.463 211.41 394.543 206.85 394.543
      197.73V149.49H416.143V197.874C416.143 208.05 413.119 215.97 407.071 221.634C401.119 227.298 392.863 230.13 382.303
      230.13C371.551 230.13 363.199 227.298 357.247 221.634C351.391 215.874 348.463 207.954 348.463
      197.874V149.49H370.063Z"/>
    <path
      d="M453.527 207.81C454.199 210.018 455.495 211.698 457.415 212.85C459.431 214.002 461.927 214.578 464.903
      214.578H472.103C476.135 214.578 479.207 213.858 481.319 212.418C483.431 210.978 484.487 208.914 484.487
      206.226C484.487 201.522 480.647 198.738 472.967 197.874L462.167 196.722C452.279 195.666 444.983 193.17 440.279
      189.234C435.671 185.202 433.367 179.49 433.367 172.098C433.367 164.322 436.055 158.37 441.431 154.242C446.903
      150.114 454.727 148.05 464.903 148.05H472.103C481.703 148.05 489.191 149.874 494.567 153.522C500.039 157.17 503.207
      162.594 504.071 169.794H482.471C481.415 165.57 477.959 163.458 472.103 163.458H464.903C457.799 163.458 454.247
      165.858 454.247 170.658C454.247 175.266 457.511 177.954 464.039 178.722L475.559 180.018C495.431 182.322 505.367
      190.77 505.367 205.362C505.367 213.522 502.535 219.714 496.871 223.938C491.207 228.066 482.951 230.13 472.103
      230.13H464.903C455.015 230.13 447.287 228.258 441.719 224.514C436.151 220.674 432.887 215.106 431.927
      207.81H453.527Z"/>
    <path
      d="M520.574 125.01H542.174V149.49C542.174 150.93 542.078 152.466 541.886 154.098C541.79 155.73 541.646 157.218
      541.454 158.562C541.262 159.906 541.118 161.01 541.022 161.874C540.926 162.738 540.878 163.17 540.878
      163.17H542.462C543.134 158.37 545.246 154.674 548.798 152.082C552.35 149.394 557.006 148.05 562.766 148.05C570.83
      148.05 577.166 150.69 581.774 155.97C586.478 161.25 588.83 168.45 588.83 177.57V228.69H567.23V179.73C567.23
      175.698 566.078 172.53 563.774 170.226C561.566 167.922 558.542 166.77 554.702 166.77C550.862 166.77 547.79 167.922
      545.486 170.226C543.278 172.53 542.174 175.698 542.174 179.73V228.69H520.574V125.01Z"/>
    <path
      d="M604.326 207.09C604.326 199.026 607.254 192.69 613.11 188.082C618.966 183.378 626.934 181.026 637.014
      181.026H654.15V173.97C654.15 171.186 652.95 168.93 650.55 167.202C648.246 165.474 645.078 164.61 641.046
      164.61C637.494 164.61 634.518 165.282 632.118 166.626C629.814 167.874 628.326 169.602 627.654
      171.81H606.774C607.35 168.162 608.55 164.898 610.374 162.018C612.294 159.042 614.742 156.546 617.718
      154.53C620.694 152.418 624.15 150.834 628.086 149.778C632.022 148.626 636.342 148.05 641.046 148.05C646.23 148.05
      650.934 148.674 655.158 149.922C659.478 151.17 663.126 152.946 666.102 155.25C669.174 157.458 671.526 160.146
      673.158 163.314C674.886 166.482 675.75 170.034 675.75 173.97V228.69H655.158V212.85H653.862C653.19 218.226 650.646
      222.45 646.23 225.522C641.91 228.594 636.294 230.13 629.382 230.13C621.702 230.13 615.606 228.066 611.094
      223.938C606.582 219.81 604.326 214.194 604.326 207.09ZM625.926 203.634C625.926 206.706 626.982 209.154 629.094
      210.978C631.302 212.706 634.422 213.57 638.454 213.57C643.062 213.57 646.806 212.514 649.686 210.402C652.662
      208.194 654.15 205.41 654.15 202.05V193.986H637.014C633.654 193.986 630.966 194.85 628.95 196.578C626.934 198.21
      625.926 200.562 625.926 203.634Z"/>
    <path
      d="M688.078 144.45V125.01H734.158V201.33C734.158 203.826 734.83 205.794 736.174 207.234C737.614 208.578 739.582
      209.25 742.078 209.25H765.838V228.69H739.918C731.374 228.69 724.654 226.29 719.758 221.49C714.958 216.594 712.558
      209.874 712.558 201.33V144.45H688.078Z"/>
    <path
      d="M781.622 209.106H809.702V168.93H785.222V149.49H829.862V209.106H852.182V228.69H781.622V209.106ZM805.382
      128.61C805.382 125.538 806.342 123.09 808.262 121.266C810.278 119.442 812.918 118.53 816.182
      118.53H820.502C823.766 118.53 826.358 119.442 828.278 121.266C830.294 123.09 831.302 125.538 831.302
      128.61C831.302 131.682 830.294 134.13 828.278 135.954C826.358 137.778 823.718 138.69 820.358
      138.69H816.182C812.918 138.69 810.278 137.778 808.262 135.954C806.342 134.13 805.382 131.682 805.382 128.61Z"/>
  </g>
</svg>
