<svg xmlns="http://www.w3.org/2000/svg" width="290.626" height="290.626" viewBox="0 0 290.626 290.626">
  <g id="thinkpad">
    <path fill="none" stroke="currentColor" stroke-width="9.375" d="M137 12V108C112.5 112.5 108 140 108 140H9V12H137Z"/>
    <path fill="currentColor" d="M83.9375 76.3125C83.2083 73.1667 81.4271 70.9688 78.5938 69.7188C77.0104 69.0312 75.25 68.6875 73.3125 68.6875C69.6042 68.6875 66.5521 70.0938 64.1562 72.9062C61.7812 75.6979 60.5938 79.9062 60.5938 85.5312C60.5938 91.1979 61.8854 95.2083 64.4688 97.5625C67.0521 99.9167 69.9896 101.094 73.2812 101.094C76.5104 101.094 79.1562 100.167 81.2188 98.3125C83.2812 96.4375 84.5521 93.9896 85.0312 90.9688H74.375V83.2812H93.5625V108H87.1875L86.2188 102.25C84.3646 104.438 82.6979 105.979 81.2188 106.875C78.6771 108.438 75.5521 109.219 71.8438 109.219C65.7396 109.219 60.7396 107.104 56.8438 102.875C52.7812 98.625 50.75 92.8125 50.75 85.4375C50.75 77.9792 52.8021 72 56.9062 67.5C61.0104 63 66.4375 60.75 73.1875 60.75C79.0417 60.75 83.7396 62.2396 87.2812 65.2188C90.8438 68.1771 92.8854 71.875 93.4062 76.3125H83.9375Z"/>

    <path fill="none" stroke="currentColor" stroke-width="9.375" d="M153 12V108C177.5 112.5 182 140 182 140H281V12H153Z"/>
    <path fill="currentColor" d="M198.188 108V61.9375H207.719V79.5H225.719V61.9375H235.281V108H225.719V87.4375H207.719V108H198.188Z"/>

    <path fill="none" stroke="currentColor" stroke-width="9.375" d="M110 155.004H81V283H209V155.004H180C173 173 158.5 182 145 182C131.5 182 117 173 110 155.004Z"/>
    <path fill="currentColor" d="M135.594 212.938V223.094H146.906C148.927 223.094 150.562 222.719 151.812 221.969C153.083 221.198 153.719 219.844 153.719 217.906C153.719 215.76 152.885 214.344 151.219 213.656C149.781 213.177 147.948 212.938 145.719 212.938H135.594ZM135.594 230.719V243H146.906C148.927 243 150.5 242.729 151.625 242.188C153.667 241.188 154.688 239.271 154.688 236.438C154.688 234.042 153.698 232.396 151.719 231.5C150.615 231 149.062 230.74 147.062 230.719H135.594ZM148.781 204.938C154.427 205.021 158.427 206.656 160.781 209.844C162.198 211.802 162.906 214.146 162.906 216.875C162.906 219.688 162.198 221.948 160.781 223.656C159.99 224.615 158.823 225.49 157.281 226.281C159.635 227.135 161.406 228.49 162.594 230.344C163.802 232.198 164.406 234.448 164.406 237.094C164.406 239.823 163.719 242.271 162.344 244.438C161.469 245.875 160.375 247.083 159.062 248.062C157.583 249.188 155.833 249.958 153.812 250.375C151.812 250.792 149.635 251 147.281 251H126.406V204.938H148.781Z"/>

    <circle cx="145" cy="145" r="26" fill="#d90f1d"/>
  </g>
</svg>
