<svg width="16" height="16" viewBox="0 0 16 16" fill="none" xmlns="http://www.w3.org/2000/svg">
<g clip-path="url(#clip0)">
<path d="M0.630773 2.905H3.83027C4.34327 2.905 4.80677 2.9815 5.22077 3.1345C5.64377 3.2785 6.00377 3.49 6.30077 3.769C6.59777 4.048 6.82727 4.381 6.98927 4.768C7.15127 5.155 7.23227 5.587 7.23227 6.064V9.4525C7.23227 9.9295 7.15127 10.366 6.98927 10.762C6.82727 11.149 6.59777 11.482 6.30077 11.761C6.00377 12.031 5.64377 12.2425 5.22077 12.3955C4.80677 12.5485 4.34327 12.625 3.83027 12.625H0.630773V2.905ZM2.65577 10.735H3.83027C4.24427 10.735 4.57727 10.618 4.82927 10.384C5.08127 10.15 5.20727 9.8395 5.20727 9.4525V6.064C5.20727 5.686 5.08127 5.38 4.82927 5.146C4.57727 4.912 4.24427 4.795 3.83027 4.795H2.65577V10.735ZM8.7255 2.905H11.979C12.483 2.905 12.9375 2.9635 13.3425 3.0805C13.7475 3.1975 14.0895 3.364 14.3685 3.58C14.6565 3.796 14.877 4.057 15.03 4.363C15.183 4.669 15.2595 5.011 15.2595 5.389C15.2595 5.992 15.0885 6.478 14.7465 6.847C14.4135 7.216 13.95 7.4275 13.356 7.4815V7.63C14.004 7.675 14.5125 7.891 14.8815 8.278C15.2505 8.665 15.435 9.1735 15.435 9.8035C15.435 10.2355 15.354 10.627 15.192 10.978C15.039 11.32 14.814 11.617 14.517 11.869C14.229 12.112 13.8735 12.301 13.4505 12.436C13.0365 12.562 12.573 12.625 12.06 12.625H8.7255V2.905ZM10.683 8.3995V11.005H11.979C12.429 11.005 12.7755 10.8925 13.0185 10.6675C13.2705 10.4425 13.3965 10.123 13.3965 9.709C13.3965 9.295 13.2705 8.9755 13.0185 8.7505C12.7755 8.5165 12.429 8.3995 11.979 8.3995H10.683ZM11.952 6.7795C12.339 6.7795 12.645 6.676 12.87 6.469C13.104 6.262 13.221 5.9875 13.221 5.6455C13.221 5.3035 13.1085 5.0335 12.8835 4.8355C12.6585 4.6285 12.348 4.525 11.952 4.525H10.683V6.7795H11.952Z" fill="black"/>
</g>
<defs>
<clipPath id="clip0">
<rect width="16" height="16" fill="white"/>
</clipPath>
</defs>
</svg>
